<?xml version="1.0" ?><svg id="Capa_1" style="enable-background:new 0 0 100 100;" version="1.1" viewBox="0 0 100 100" xml:space="preserve" xmlns="http://www.w3.org/2000/svg" xmlns:xlink="http://www.w3.org/1999/xlink"><path d="M58.1,72H39.9c-0.8,0-1.5-0.7-1.5-1.5V64c0-2.7-1.4-5.2-3.9-6.8C26.7,52.3,22,43.7,22,34.4c0-7.3,2.9-14.1,8-19.2  c5.2-5.1,12-7.9,19.3-7.8C63.5,7.6,75.2,18.7,76,32.8l0,0c0.6,9.8-4.2,19.1-12.4,24.4c-2.5,1.6-4,4.3-4,7.1v6.2  C59.6,71.3,58.9,72,58.1,72z M41.4,69h15.2v-4.7c0-3.9,2-7.4,5.4-9.6c7.3-4.7,11.5-13,11-21.7c-0.7-12.5-11.1-22.4-23.7-22.6  c-6.5-0.1-12.6,2.4-17.2,6.9C27.5,21.9,25,27.9,25,34.4c0,8.3,4.2,15.9,11.2,20.3c3.3,2.1,5.3,5.6,5.3,9.3V69z"/><path d="M57,80.5H41c-3.2,0-5.8-2.6-5.8-5.8S37.8,69,41,69H57c3.2,0,5.8,2.6,5.8,5.8S60.2,80.5,57,80.5z M41,72  c-1.5,0-2.8,1.2-2.8,2.8s1.2,2.8,2.8,2.8H57c1.5,0,2.8-1.2,2.8-2.8S58.5,72,57,72H41z"/><path d="M49,92.6c-3.9,0-7.4-2.5-8.8-6.2c-0.1-0.2-0.1-0.3-0.1-0.5v-5.7c0-0.8,0.7-1.5,1.5-1.5s1.5,0.7,1.5,1.5v5.4  c1,2.4,3.3,3.9,5.9,3.9c2.6,0,4.9-1.6,5.9-3.9v-5.4c0-0.8,0.7-1.5,1.5-1.5s1.5,0.7,1.5,1.5V86c0,0.2,0,0.3-0.1,0.5  C56.4,90.2,52.9,92.6,49,92.6z"/><path d="M52.8,71.1c-0.4,0-0.8-0.3-0.8-0.8V52.9h-6v17.5c0,0.4-0.3,0.8-0.8,0.8s-0.8-0.3-0.8-0.8V52.9H41c-2.8,0-5-2.2-5-5  s2.2-5,5-5s5,2.2,5,5v3.5h6v-3.5c0-2.8,2.2-5,5-5c2.8,0,5,2.2,5,5s-2.2,5-5,5h-3.5v17.5C53.5,70.8,53.2,71.1,52.8,71.1z M53.5,51.4  H57c1.9,0,3.5-1.6,3.5-3.5S59,44.3,57,44.3c-1.9,0-3.5,1.6-3.5,3.5V51.4z M41,44.3c-1.9,0-3.5,1.6-3.5,3.5s1.6,3.5,3.5,3.5h3.5v-3.5  C44.5,45.9,42.9,44.3,41,44.3z"/><path d="M46.4,82.8h-4.8c-0.4,0-0.8-0.3-0.8-0.8s0.3-0.8,0.8-0.8h4.8c0.4,0,0.8,0.3,0.8,0.8S46.8,82.8,46.4,82.8z"/><path d="M46.4,84.8h-4.8c-0.4,0-0.8-0.3-0.8-0.8s0.3-0.8,0.8-0.8h4.8c0.4,0,0.8,0.3,0.8,0.8S46.8,84.8,46.4,84.8z"/><path d="M56.4,82.8h-4.8c-0.4,0-0.8-0.3-0.8-0.8s0.3-0.8,0.8-0.8h4.8c0.4,0,0.8,0.3,0.8,0.8S56.8,82.8,56.4,82.8z"/><path d="M56.4,84.8h-4.8c-0.4,0-0.8-0.3-0.8-0.8s0.3-0.8,0.8-0.8h4.8c0.4,0,0.8,0.3,0.8,0.8S56.8,84.8,56.4,84.8z"/></svg>