<?xml version="1.0" encoding="UTF-8" standalone="no"?>
<!DOCTYPE svg PUBLIC "-//W3C//DTD SVG 1.1//EN" "http://www.w3.org/Graphics/SVG/1.1/DTD/svg11.dtd">
<svg width="100%" height="100%" viewBox="0 0 2175 1620" version="1.1" xmlns="http://www.w3.org/2000/svg" xmlns:xlink="http://www.w3.org/1999/xlink" xml:space="preserve" xmlns:serif="http://www.serif.com/" style="fill-rule:evenodd;clip-rule:evenodd;stroke-linejoin:round;stroke-miterlimit:2;">
    <g transform="matrix(1,0,0,1,-946.2,-292.961)">
        <path d="M2804.3,1648.24C2804.3,1648.24 3114.19,1464.82 3051.88,1254.74C2989.57,1044.65 2798.93,950.089 2874.03,818.798C2953.75,679.43 2846.77,531.501 2637.28,460.966C2547.75,430.82 2498.53,315.611 2432.77,320.72C2387.62,324.228 2296.42,307.947 2180.91,299.101C1990.66,284.532 1756.39,287.02 1715.3,408.321C1652.43,593.872 1583.25,598.103 1392.94,726.032C1202.62,853.962 683.889,1043.74 1109.65,1644.9C1535.42,2246.06 2804.3,1648.24 2804.3,1648.24Z" style="fill:rgb(245,245,245);"/>
        <path d="M3117.12,1661.1L1020.53,1661.1C1018.4,1661.1 1016.66,1659.35 1016.66,1657.22L1016.66,1654.32C1016.66,1652.19 1018.4,1650.45 1020.53,1650.45L3117.12,1650.45C3119.26,1650.45 3121,1652.19 3121,1654.32L3121,1657.22C3121,1659.35 3119.26,1661.1 3117.12,1661.1Z" style="fill:rgb(46,53,82);fill-rule:nonzero;"/>
        <path d="M2751.67,765.375C2751.67,821.912 2705.84,867.743 2649.3,867.743C2592.77,867.743 2546.94,821.912 2546.94,765.375L2751.67,765.375Z" style="fill:rgb(162,135,106);fill-rule:nonzero;"/>
        <path d="M2753.83,767.706L2544.78,767.706C2543.15,767.706 2541.82,766.382 2541.82,764.75C2541.82,763.117 2543.15,761.793 2544.78,761.793L2753.83,761.793C2755.46,761.793 2756.78,763.117 2756.78,764.75C2756.78,766.382 2755.46,767.706 2753.83,767.706Z" style="fill:rgb(162,135,106);fill-rule:nonzero;"/>
        <path d="M2628.94,451.603C2607.44,534.534 2573.91,663.504 2555.61,727.989L2555.61,728.142C2555.46,728.446 2555.46,728.751 2555.31,729.056C2553.48,735.611 2551.65,741.557 2550.28,746.587C2549.51,748.874 2548.9,750.704 2548.29,752.686L2548.29,752.838C2547.23,756.344 2546.31,759.393 2545.55,761.832C2544.48,764.576 2543.87,766.406 2543.42,767.168L2544.03,767.625L2545.09,768.235C2545.25,768.083 2545.25,767.93 2545.4,767.778C2546.01,766.558 2546.77,764.576 2547.68,761.832C2548.45,759.393 2549.36,756.649 2550.43,753.143C2551.04,750.856 2551.95,748.265 2552.71,745.368C2554.09,740.642 2555.61,735.459 2557.29,729.666C2557.29,729.361 2557.44,729.208 2557.59,728.904L2557.59,728.751C2575.73,664.267 2609.27,535.906 2630.92,452.823L2628.94,451.603Z" style="fill:rgb(162,135,106);fill-rule:nonzero;"/>
        <path d="M2681.53,491.239L2752.72,761.832L2754.25,767.473L2752.88,767.778L2752.27,767.93L2752.27,767.778L2751.66,765.644L2751.66,765.338L2750.59,761.832L2678.79,489.105L2681.53,491.239Z" style="fill:rgb(162,135,106);fill-rule:nonzero;"/>
        <rect x="2614.42" y="861.479" width="69.77" height="8.837" style="fill:rgb(162,135,106);fill-rule:nonzero;"/>
        <path d="M2599.22,971.606C2599.09,971.234 2586.18,934.141 2599.24,905.28C2611.82,877.481 2606.62,834.401 2600.68,799.976C2596.43,775.316 2601.1,737.946 2614.6,723.749C2618.94,719.187 2623.92,717.21 2629.43,717.878C2654.63,720.93 2656.18,761.369 2656.19,761.776L2655.15,761.809C2655.13,761.41 2653.62,721.858 2629.31,718.915C2624.16,718.289 2619.46,720.158 2615.36,724.468C2604.69,735.683 2596.46,769.378 2601.71,799.798C2607.67,834.371 2612.88,877.653 2600.19,905.709C2587.3,934.192 2600.07,970.889 2600.2,971.256L2599.22,971.606Z" style="fill:rgb(130,179,120);fill-rule:nonzero;"/>
        <path d="M2598.5,967.653C2598.5,967.653 2611.11,975.695 2610.89,990.147C2610.89,990.147 2599.69,986.258 2598.5,967.653Z" style="fill:rgb(24,217,48);fill-rule:nonzero;"/>
        <path d="M2599.24,981.903C2599.24,981.903 2606.29,995.087 2599.02,1007.58C2599.02,1007.58 2591.16,998.707 2599.24,981.903Z" style="fill:rgb(24,217,48);fill-rule:nonzero;"/>
        <path d="M2598.39,967.68C2598.39,967.68 2597.91,982.626 2585.36,989.806C2585.36,989.806 2582.99,978.189 2598.39,967.68Z" style="fill:rgb(24,217,48);fill-rule:nonzero;"/>
        <path d="M2594.71,947.901C2594.71,947.901 2610.72,953.067 2614.59,968.859C2614.59,968.859 2601.29,967.812 2594.71,947.901Z" style="fill:rgb(24,217,48);fill-rule:nonzero;"/>
        <path d="M2594.71,947.901C2594.71,947.901 2593.89,964.703 2579.65,972.547C2579.65,972.547 2577.2,959.439 2594.71,947.901Z" style="fill:rgb(24,217,48);fill-rule:nonzero;"/>
        <path d="M2594.32,924.818C2594.32,924.818 2612.2,934.13 2613.6,953.564C2613.6,953.564 2598.11,949.663 2594.32,924.818Z" style="fill:rgb(24,217,48);fill-rule:nonzero;"/>
        <path d="M2594.32,924.818C2594.32,924.818 2589.98,944.505 2571.58,950.92C2571.58,950.92 2571.32,934.941 2594.32,924.818Z" style="fill:rgb(24,217,48);fill-rule:nonzero;"/>
        <path d="M2601.22,901.106C2601.22,901.106 2621.28,915.253 2619.81,938.935C2619.81,938.935 2601.74,931.706 2601.22,901.106Z" style="fill:rgb(24,217,48);fill-rule:nonzero;"/>
        <path d="M2601.22,901.106C2601.22,901.106 2592.78,924.159 2569.53,928.908C2569.53,928.908 2571.81,909.581 2601.22,901.106Z" style="fill:rgb(24,217,48);fill-rule:nonzero;"/>
        <path d="M2607.25,871.439C2607.25,871.439 2624.18,888.359 2618.85,910.877C2618.85,910.877 2602.68,900.936 2607.25,871.439Z" style="fill:rgb(24,217,48);fill-rule:nonzero;"/>
        <path d="M2607.25,871.439C2607.25,871.439 2595.32,892.197 2572.19,892.909C2572.19,892.909 2577.58,874.711 2607.25,871.439Z" style="fill:rgb(24,217,48);fill-rule:nonzero;"/>
        <path d="M2475.44,960.353L2474.43,960.096C2483.31,925.092 2475.99,873.811 2471.14,839.877C2469.79,830.408 2468.62,822.23 2468.15,816.603C2466.85,800.974 2475.3,767.652 2494.54,745.739C2505.87,732.832 2518.93,725.948 2533.34,725.278C2578.14,723.205 2588.04,761.283 2588.14,761.668L2587.12,761.918C2587.03,761.541 2577.28,724.27 2533.39,726.32C2519.27,726.977 2506.46,733.742 2495.32,746.428C2476.27,768.123 2467.91,801.072 2469.19,816.516C2469.66,822.113 2470.82,830.277 2472.17,839.729C2477.03,873.745 2484.37,925.149 2475.44,960.353Z" style="fill:rgb(130,179,120);fill-rule:nonzero;"/>
        <path d="M2476.67,875.193C2476.67,875.193 2494.41,876.932 2501.98,892.41C2501.98,892.41 2487.98,894.323 2476.67,875.193Z" style="fill:rgb(24,217,48);fill-rule:nonzero;"/>
        <path d="M2478.47,895.642C2478.47,895.642 2495.58,900.606 2500.18,917.21C2500.18,917.21 2486.07,916.522 2478.47,895.642Z" style="fill:rgb(24,217,48);fill-rule:nonzero;"/>
        <path d="M2479.18,921.884C2479.18,921.884 2492.06,929.473 2492.35,943.924C2492.35,943.924 2481.02,940.435 2479.18,921.884Z" style="fill:rgb(24,217,48);fill-rule:nonzero;"/>
        <path d="M2478.7,941.171C2478.7,941.171 2489.07,951.944 2485.46,965.941C2485.46,965.941 2475.49,959.536 2478.7,941.171Z" style="fill:rgb(24,217,48);fill-rule:nonzero;"/>
        <path d="M2476.07,955.196C2476.07,955.196 2479.84,969.667 2469.85,980.109C2469.85,980.109 2464.28,969.642 2476.07,955.196Z" style="fill:rgb(24,217,48);fill-rule:nonzero;"/>
        <path d="M2478.58,941.171C2478.58,941.171 2474.61,955.588 2460.73,959.629C2460.73,959.629 2461.15,947.781 2478.58,941.171Z" style="fill:rgb(24,217,48);fill-rule:nonzero;"/>
        <path d="M2479.18,921.884C2479.18,921.884 2475.2,936.3 2461.33,940.341C2461.33,940.341 2461.75,928.494 2479.18,921.884Z" style="fill:rgb(24,217,48);fill-rule:nonzero;"/>
        <path d="M2478.06,895.235C2478.06,895.235 2476.5,910.107 2463.47,916.364C2463.47,916.364 2461.95,904.607 2478.06,895.235Z" style="fill:rgb(24,217,48);fill-rule:nonzero;"/>
        <path d="M2476.67,875.248C2476.67,875.248 2474.86,892.518 2459.73,899.783C2459.73,899.783 2457.96,886.131 2476.67,875.248Z" style="fill:rgb(24,217,48);fill-rule:nonzero;"/>
        <path d="M2472.57,848.101C2472.57,848.101 2490.35,846.75 2500.47,860.688C2500.47,860.688 2487.01,864.991 2472.57,848.101Z" style="fill:rgb(24,217,48);fill-rule:nonzero;"/>
        <path d="M2472.58,848.155C2472.58,848.155 2473.78,865.479 2460.13,875.248C2460.13,875.248 2456.03,862.107 2472.58,848.155Z" style="fill:rgb(24,217,48);fill-rule:nonzero;"/>
        <path d="M2468.59,815.396C2468.59,815.396 2486.38,816.414 2494.57,831.573C2494.57,831.573 2480.66,834.052 2468.59,815.396Z" style="fill:rgb(24,217,48);fill-rule:nonzero;"/>
        <path d="M2468.59,815.451C2468.59,815.451 2467.48,832.78 2452.65,840.653C2452.65,840.653 2450.33,827.084 2468.59,815.451Z" style="fill:rgb(24,217,48);fill-rule:nonzero;"/>
        <path d="M2473.8,784.407C2473.8,784.407 2489.85,792.164 2491.61,809.302C2491.61,809.302 2477.81,806.264 2473.8,784.407Z" style="fill:rgb(24,217,48);fill-rule:nonzero;"/>
        <path d="M2473.78,784.459C2473.78,784.459 2466.12,800.04 2449.41,801.634C2449.41,801.634 2452.46,788.211 2473.78,784.459Z" style="fill:rgb(24,217,48);fill-rule:nonzero;"/>
        <path d="M2486.62,756.289C2486.62,756.289 2503.62,770.296 2500.72,791.39C2500.72,791.39 2485.04,783.706 2486.62,756.289Z" style="fill:rgb(24,217,48);fill-rule:nonzero;"/>
        <path d="M2486.58,756.346C2486.58,756.346 2472.82,772.813 2452.29,769.841C2452.29,769.841 2459.88,754.617 2486.58,756.346Z" style="fill:rgb(24,217,48);fill-rule:nonzero;"/>
        <path d="M2508.13,733.648C2508.13,733.648 2524.83,751.941 2518.25,774.956C2518.25,774.956 2502.02,763.912 2508.13,733.648Z" style="fill:rgb(24,217,48);fill-rule:nonzero;"/>
        <path d="M2508.08,733.706C2508.08,733.706 2490.15,749.847 2467.77,743.277C2467.77,743.277 2478.64,727.538 2508.08,733.706Z" style="fill:rgb(24,217,48);fill-rule:nonzero;"/>
        <path d="M2537.21,725.648C2537.21,725.648 2545.72,748.905 2530.91,767.706C2530.91,767.706 2520.07,751.331 2537.21,725.648Z" style="fill:rgb(24,217,48);fill-rule:nonzero;"/>
        <path d="M2537.14,725.682C2537.14,725.682 2514.43,733.818 2496.21,719.254C2496.21,719.254 2512.24,708.812 2537.14,725.682Z" style="fill:rgb(24,217,48);fill-rule:nonzero;"/>
        <path d="M2578.83,745.113C2578.83,745.113 2563.07,758.761 2544.23,751.505C2544.23,751.505 2553.97,737.82 2578.83,745.113Z" style="fill:rgb(24,217,48);fill-rule:nonzero;"/>
        <path d="M2578.79,745.064C2578.79,745.064 2566.04,728.188 2572.29,708.786C2572.29,708.786 2584.95,719.384 2578.79,745.064Z" style="fill:rgb(24,217,48);fill-rule:nonzero;"/>
        <path d="M2704.32,923.239L2703.59,923.304C2701.35,897.806 2684.46,865.205 2673.28,843.632C2670.17,837.613 2667.47,832.414 2665.84,828.758C2661.32,818.604 2659.18,794.334 2666.93,775.174C2671.5,763.888 2678.63,756.23 2688.11,752.412C2717.61,740.551 2733.13,763.716 2733.28,763.952L2732.66,764.356C2732.51,764.125 2717.27,741.467 2688.39,753.098C2679.1,756.838 2672.11,764.359 2667.62,775.451C2659.94,794.422 2662.05,818.424 2666.52,828.457C2668.14,832.093 2670.83,837.283 2673.94,843.292C2685.14,864.917 2702.07,897.595 2704.32,923.239Z" style="fill:rgb(130,179,120);fill-rule:nonzero;"/>
        <path d="M2685.24,865.969C2685.24,865.969 2697.52,862.986 2706.2,871.574C2706.2,871.574 2697.28,876.127 2685.24,865.969Z" style="fill:rgb(24,217,48);fill-rule:nonzero;"/>
        <path d="M2691.22,879.232C2691.22,879.232 2703.84,878.552 2710.79,888.587C2710.79,888.587 2701.19,891.426 2691.22,879.232Z" style="fill:rgb(24,217,48);fill-rule:nonzero;"/>
        <path d="M2697.83,896.625C2697.83,896.625 2708.23,898.69 2711.8,908.292C2711.8,908.292 2703.41,908.606 2697.83,896.625Z" style="fill:rgb(24,217,48);fill-rule:nonzero;"/>
        <path d="M2702.02,909.643C2702.02,909.643 2711.48,914.426 2712.34,924.634C2712.34,924.634 2704.17,922.681 2702.02,909.643Z" style="fill:rgb(24,217,48);fill-rule:nonzero;"/>
        <path d="M2703.54,919.642C2703.54,919.642 2709.45,928.441 2705.2,937.765C2705.2,937.765 2699.03,932.062 2703.54,919.642Z" style="fill:rgb(24,217,48);fill-rule:nonzero;"/>
        <path d="M2701.94,909.67C2701.94,909.67 2702.65,920.245 2694.31,926.193C2694.31,926.193 2691.82,918.167 2701.94,909.67Z" style="fill:rgb(24,217,48);fill-rule:nonzero;"/>
        <path d="M2697.83,896.625C2697.83,896.625 2698.54,907.2 2690.2,913.147C2690.2,913.147 2687.71,905.122 2697.83,896.625Z" style="fill:rgb(24,217,48);fill-rule:nonzero;"/>
        <path d="M2690.86,879.055C2690.86,879.055 2693.29,889.372 2686.03,896.604C2686.03,896.604 2682.26,889.094 2690.86,879.055Z" style="fill:rgb(24,217,48);fill-rule:nonzero;"/>
        <path d="M2685.25,866.006C2685.25,866.006 2688.08,877.986 2679.65,886.384C2679.65,886.384 2675.28,877.663 2685.25,866.006Z" style="fill:rgb(24,217,48);fill-rule:nonzero;"/>
        <path d="M2676.17,848.8C2676.17,848.8 2687.74,843.741 2697.78,850.701C2697.78,850.701 2689.78,856.726 2676.17,848.8Z" style="fill:rgb(24,217,48);fill-rule:nonzero;"/>
        <path d="M2676.19,848.834C2676.19,848.834 2681.04,860.146 2674.19,869.873C2674.19,869.873 2668.37,862.039 2676.19,848.834Z" style="fill:rgb(24,217,48);fill-rule:nonzero;"/>
        <path d="M2665.85,827.849C2665.85,827.849 2678,824.37 2687.02,832.599C2687.02,832.599 2678.29,837.51 2665.85,827.849Z" style="fill:rgb(24,217,48);fill-rule:nonzero;"/>
        <path d="M2665.87,827.885C2665.87,827.885 2669.17,839.74 2661.1,848.474C2661.1,848.474 2656.37,839.937 2665.87,827.885Z" style="fill:rgb(24,217,48);fill-rule:nonzero;"/>
        <path d="M2662.1,805.894C2662.1,805.894 2674.65,807.333 2679.83,818.39C2679.83,818.39 2669.89,819.583 2662.1,805.894Z" style="fill:rgb(24,217,48);fill-rule:nonzero;"/>
        <path d="M2662.1,805.934C2662.1,805.934 2660.61,818.151 2649.8,823.124C2649.8,823.124 2648.71,813.429 2662.1,805.934Z" style="fill:rgb(24,217,48);fill-rule:nonzero;"/>
        <path d="M2664.1,784.084C2664.1,784.084 2678.75,789.482 2681.74,804.274C2681.74,804.274 2669.45,802.799 2664.1,784.084Z" style="fill:rgb(24,217,48);fill-rule:nonzero;"/>
        <path d="M2664.09,784.131C2664.09,784.131 2658.73,798.367 2644.3,801.177C2644.3,801.177 2645.82,789.216 2664.09,784.131Z" style="fill:rgb(24,217,48);fill-rule:nonzero;"/>
        <path d="M2673.2,763.906C2673.2,763.906 2688.65,772.242 2689.63,789.181C2689.63,789.181 2676.18,785.586 2673.2,763.906Z" style="fill:rgb(24,217,48);fill-rule:nonzero;"/>
        <path d="M2673.18,763.956C2673.18,763.956 2664.96,778.949 2648.45,779.784C2648.45,779.784 2652.04,766.712 2673.18,763.956Z" style="fill:rgb(24,217,48);fill-rule:nonzero;"/>
        <path d="M2690.79,751.755C2690.79,751.755 2701.92,765.327 2696.4,781.371C2696.4,781.371 2685.33,772.947 2690.79,751.755Z" style="fill:rgb(24,217,48);fill-rule:nonzero;"/>
        <path d="M2690.75,751.794C2690.75,751.794 2677.45,762.548 2661.86,757.062C2661.86,757.062 2670.14,746.328 2690.75,751.794Z" style="fill:rgb(24,217,48);fill-rule:nonzero;"/>
        <path d="M2723.19,755.05C2723.19,755.05 2715.83,767.865 2701.53,767.415C2701.53,767.415 2704.84,755.983 2723.19,755.05Z" style="fill:rgb(24,217,48);fill-rule:nonzero;"/>
        <path d="M2723.14,755.028C2723.14,755.028 2710.68,746.714 2710.32,732.273C2710.32,732.273 2721.26,736.405 2723.14,755.028Z" style="fill:rgb(24,217,48);fill-rule:nonzero;"/>
        <path d="M2652.41,742.982C2652.41,742.982 2634.39,751.601 2618.16,741.144C2618.16,741.144 2630.48,731.191 2652.41,742.982Z" style="fill:rgb(24,217,48);fill-rule:nonzero;"/>
        <path d="M2652.38,742.929C2652.38,742.929 2644.1,725.314 2654.4,709.574C2654.4,709.574 2664.01,721.641 2652.38,742.929Z" style="fill:rgb(24,217,48);fill-rule:nonzero;"/>
        <path d="M2635.29,720.087C2635.29,720.087 2629.5,734.486 2613.03,736.732C2613.03,736.732 2614.47,724.5 2635.29,720.087Z" style="fill:rgb(24,217,48);fill-rule:nonzero;"/>
        <path d="M2628.28,718.24C2628.28,718.24 2611.16,720.529 2600.6,707.607C2600.6,707.607 2613.38,702.702 2628.28,718.24Z" style="fill:rgb(24,217,48);fill-rule:nonzero;"/>
        <path d="M2603.77,819.594C2603.77,819.594 2625.84,828.868 2629.41,851.732C2629.41,851.732 2610.68,848.63 2603.77,819.594Z" style="fill:rgb(24,217,48);fill-rule:nonzero;"/>
        <path d="M2603.77,819.594C2603.77,819.594 2600.56,843.319 2579.41,852.711C2579.41,852.711 2577.53,833.825 2603.77,819.594Z" style="fill:rgb(24,217,48);fill-rule:nonzero;"/>
        <path d="M2599.45,790.757C2599.45,790.757 2624.77,797.631 2631.96,821.953C2631.96,821.953 2611.17,821.296 2599.45,790.757Z" style="fill:rgb(24,217,48);fill-rule:nonzero;"/>
        <path d="M2599.45,790.757C2599.45,790.757 2599.41,816.995 2577.79,830.263C2577.79,830.263 2573.02,810.019 2599.45,790.757Z" style="fill:rgb(24,217,48);fill-rule:nonzero;"/>
        <path d="M2600.6,760.054C2600.6,760.054 2624.79,770.208 2628.71,795.265C2628.71,795.265 2608.19,791.872 2600.6,760.054Z" style="fill:rgb(24,217,48);fill-rule:nonzero;"/>
        <path d="M2600.6,760.054C2600.6,760.054 2597.09,786.056 2573.92,796.357C2573.92,796.357 2571.85,775.66 2600.6,760.054Z" style="fill:rgb(24,217,48);fill-rule:nonzero;"/>
        <path d="M2607.26,736.732C2607.26,736.732 2628.31,752.395 2626.1,777.659C2626.1,777.659 2606.99,769.44 2607.26,736.732Z" style="fill:rgb(24,217,48);fill-rule:nonzero;"/>
        <path d="M2607.26,736.732C2607.26,736.732 2597.62,761.133 2572.65,765.571C2572.65,765.571 2575.61,744.983 2607.26,736.732Z" style="fill:rgb(24,217,48);fill-rule:nonzero;"/>
        <path d="M1752.75,595.398C1752.75,653.355 1799.73,700.337 1857.69,700.337C1915.65,700.337 1962.63,653.355 1962.63,595.398L1752.75,595.398Z" style="fill:rgb(162,135,106);fill-rule:nonzero;"/>
        <path d="M1750.54,597.788L1964.84,597.788C1966.51,597.788 1967.87,596.431 1967.87,594.757C1967.87,593.083 1966.51,591.726 1964.84,591.726L1750.54,591.726C1748.87,591.726 1747.51,593.083 1747.51,594.757C1747.51,596.431 1748.87,597.788 1750.54,597.788Z" style="fill:rgb(162,135,106);fill-rule:nonzero;"/>
        <path d="M1887.28,307.388C1908.78,390.625 1937.44,499.167 1953.75,557.096C1953.9,557.401 1953.9,557.858 1954.06,558.164C1956.04,564.871 1957.71,570.969 1959.24,576.152C1960,578.439 1960.61,580.42 1961.22,582.402L1961.22,582.555C1962.29,586.213 1963.36,589.263 1964.12,591.702C1965.03,594.598 1965.79,596.428 1966.25,597.19L1965.49,597.647L1964.42,598.409C1964.42,598.257 1964.27,597.952 1964.12,597.8C1963.66,596.732 1962.9,594.598 1961.98,591.702C1961.07,589.415 1960.15,586.366 1959.09,582.86C1958.32,580.42 1957.56,577.829 1956.65,574.933C1955.28,570.054 1953.75,564.719 1952.07,558.773C1951.92,558.468 1951.92,558.164 1951.77,557.858L1951.77,557.706C1935.31,499.471 1906.8,391.082 1885.15,307.846L1885.15,307.693L1887.28,307.388Z" style="fill:rgb(162,135,106);fill-rule:nonzero;"/>
        <path d="M1822.5,322.633L1751.61,591.702L1750.08,597.495L1751.15,597.8L1752.06,598.104L1752.22,597.8L1752.67,595.665L1752.83,595.36L1753.74,591.702L1824.93,321.871L1822.5,322.633Z" style="fill:rgb(162,135,106);fill-rule:nonzero;"/>
        <rect x="1821.93" y="693.916" width="71.52" height="9.06" style="fill:rgb(162,135,106);fill-rule:nonzero;"/>
        <path d="M1909.03,806.81C1909.17,806.429 1922.4,768.404 1909.01,738.817C1896.12,710.321 1901.45,666.159 1907.53,630.868C1911.89,605.589 1907.1,567.28 1893.26,552.727C1888.81,548.05 1883.71,546.023 1878.06,546.708C1852.23,549.836 1850.64,591.291 1850.63,591.709L1851.7,591.743C1851.71,591.333 1853.27,550.788 1878.19,547.771C1883.47,547.129 1888.29,549.045 1892.49,553.463C1903.42,564.96 1911.86,599.502 1906.48,630.687C1900.37,666.127 1895.02,710.497 1908.04,739.258C1921.25,768.456 1908.16,806.075 1908.02,806.452L1909.03,806.81Z" style="fill:rgb(130,179,120);fill-rule:nonzero;"/>
        <path d="M1909.76,802.758C1909.76,802.758 1896.84,811.002 1897.07,825.817C1897.07,825.817 1908.55,821.83 1909.76,802.758Z" style="fill:rgb(24,217,48);fill-rule:nonzero;"/>
        <path d="M1909.02,817.366C1909.02,817.366 1901.78,830.881 1909.23,843.688C1909.23,843.688 1917.29,834.592 1909.02,817.366Z" style="fill:rgb(24,217,48);fill-rule:nonzero;"/>
        <path d="M1909.88,802.785C1909.88,802.785 1910.38,818.107 1923.24,825.467C1923.24,825.467 1925.66,813.559 1909.88,802.785Z" style="fill:rgb(24,217,48);fill-rule:nonzero;"/>
        <path d="M1913.65,782.51C1913.65,782.51 1897.24,787.806 1893.28,803.994C1893.28,803.994 1906.91,802.921 1913.65,782.51Z" style="fill:rgb(24,217,48);fill-rule:nonzero;"/>
        <path d="M1913.65,782.51C1913.65,782.51 1914.5,799.733 1929.09,807.775C1929.09,807.775 1931.6,794.338 1913.65,782.51Z" style="fill:rgb(24,217,48);fill-rule:nonzero;"/>
        <path d="M1914.05,758.847C1914.05,758.847 1895.73,768.393 1894.29,788.315C1894.29,788.315 1910.17,784.316 1914.05,758.847Z" style="fill:rgb(24,217,48);fill-rule:nonzero;"/>
        <path d="M1914.05,758.847C1914.05,758.847 1918.5,779.028 1937.36,785.604C1937.36,785.604 1937.64,769.224 1914.05,758.847Z" style="fill:rgb(24,217,48);fill-rule:nonzero;"/>
        <path d="M1906.98,734.539C1906.98,734.539 1886.42,749.041 1887.92,773.318C1887.92,773.318 1906.44,765.907 1906.98,734.539Z" style="fill:rgb(24,217,48);fill-rule:nonzero;"/>
        <path d="M1906.98,734.539C1906.98,734.539 1915.63,758.171 1939.47,763.039C1939.47,763.039 1937.13,743.227 1906.98,734.539Z" style="fill:rgb(24,217,48);fill-rule:nonzero;"/>
        <path d="M1900.8,704.127C1900.8,704.127 1883.44,721.472 1888.91,744.556C1888.91,744.556 1905.48,734.364 1900.8,704.127Z" style="fill:rgb(24,217,48);fill-rule:nonzero;"/>
        <path d="M1900.8,704.127C1900.8,704.127 1913.03,725.406 1936.74,726.136C1936.74,726.136 1931.22,707.481 1900.8,704.127Z" style="fill:rgb(24,217,48);fill-rule:nonzero;"/>
        <path d="M2035.92,795.274L2036.96,795.011C2027.85,759.128 2035.36,706.558 2040.33,671.771C2041.71,662.064 2042.91,653.682 2043.39,647.912C2044.73,631.891 2036.07,597.732 2016.34,575.269C2004.72,562.038 1991.34,554.98 1976.56,554.293C1930.64,552.168 1920.49,591.203 1920.39,591.598L1921.43,591.854C1921.53,591.468 1931.53,553.26 1976.51,555.362C1990.99,556.035 2004.12,562.97 2015.54,575.975C2035.07,598.215 2043.64,631.992 2042.33,647.824C2041.85,653.562 2040.65,661.93 2039.27,671.621C2034.29,706.49 2026.76,759.186 2035.92,795.274Z" style="fill:rgb(24,217,48);fill-rule:nonzero;"/>
        <path d="M2034.66,707.975C2034.66,707.975 2016.47,709.757 2008.72,725.625C2008.72,725.625 2023.07,727.586 2034.66,707.975Z" style="fill:rgb(24,217,48);fill-rule:nonzero;"/>
        <path d="M2032.82,728.938C2032.82,728.938 2015.27,734.027 2010.56,751.048C2010.56,751.048 2025.03,750.342 2032.82,728.938Z" style="fill:rgb(24,217,48);fill-rule:nonzero;"/>
        <path d="M2032.09,755.839C2032.09,755.839 2018.88,763.619 2018.58,778.433C2018.58,778.433 2030.2,774.856 2032.09,755.839Z" style="fill:rgb(24,217,48);fill-rule:nonzero;"/>
        <path d="M2032.58,775.611C2032.58,775.611 2021.95,786.654 2025.64,801.003C2025.64,801.003 2035.87,794.437 2032.58,775.611Z" style="fill:rgb(24,217,48);fill-rule:nonzero;"/>
        <path d="M2035.28,789.988C2035.28,789.988 2031.41,804.822 2041.65,815.527C2041.65,815.527 2047.36,804.796 2035.28,789.988Z" style="fill:rgb(24,217,48);fill-rule:nonzero;"/>
        <path d="M2032.7,775.611C2032.7,775.611 2036.78,790.39 2051,794.532C2051,794.532 2050.57,782.387 2032.7,775.611Z" style="fill:rgb(24,217,48);fill-rule:nonzero;"/>
        <path d="M2032.09,755.839C2032.09,755.839 2036.16,770.617 2050.39,774.76C2050.39,774.76 2049.96,762.615 2032.09,755.839Z" style="fill:rgb(24,217,48);fill-rule:nonzero;"/>
        <path d="M2033.23,728.521C2033.23,728.521 2034.84,743.767 2048.19,750.18C2048.19,750.18 2049.75,738.128 2033.23,728.521Z" style="fill:rgb(24,217,48);fill-rule:nonzero;"/>
        <path d="M2034.66,708.031C2034.66,708.031 2036.52,725.735 2052.03,733.182C2052.03,733.182 2053.84,719.188 2034.66,708.031Z" style="fill:rgb(24,217,48);fill-rule:nonzero;"/>
        <path d="M2038.86,680.202C2038.86,680.202 2020.64,678.817 2010.26,693.106C2010.26,693.106 2024.06,697.517 2038.86,680.202Z" style="fill:rgb(24,217,48);fill-rule:nonzero;"/>
        <path d="M2038.85,680.258C2038.85,680.258 2037.62,698.017 2051.61,708.031C2051.61,708.031 2055.82,694.561 2038.85,680.258Z" style="fill:rgb(24,217,48);fill-rule:nonzero;"/>
        <path d="M2042.95,646.676C2042.95,646.676 2024.7,647.719 2016.31,663.259C2016.31,663.259 2030.57,665.801 2042.95,646.676Z" style="fill:rgb(24,217,48);fill-rule:nonzero;"/>
        <path d="M2042.94,646.732C2042.94,646.732 2044.08,664.497 2059.28,672.567C2059.28,672.567 2061.66,658.658 2042.94,646.732Z" style="fill:rgb(24,217,48);fill-rule:nonzero;"/>
        <path d="M2037.6,614.908C2037.6,614.908 2021.15,622.859 2019.35,640.429C2019.35,640.429 2033.49,637.314 2037.6,614.908Z" style="fill:rgb(24,217,48);fill-rule:nonzero;"/>
        <path d="M2037.62,614.961C2037.62,614.961 2045.48,630.934 2062.6,632.568C2062.6,632.568 2059.47,618.808 2037.62,614.961Z" style="fill:rgb(24,217,48);fill-rule:nonzero;"/>
        <path d="M2024.46,586.084C2024.46,586.084 2007.03,600.443 2010.01,622.066C2010.01,622.066 2026.08,614.189 2024.46,586.084Z" style="fill:rgb(24,217,48);fill-rule:nonzero;"/>
        <path d="M2024.5,586.142C2024.5,586.142 2038.61,603.023 2059.65,599.977C2059.65,599.977 2051.87,584.369 2024.5,586.142Z" style="fill:rgb(24,217,48);fill-rule:nonzero;"/>
        <path d="M2002.4,562.875C2002.4,562.875 1985.29,581.626 1992.04,605.22C1992.04,605.22 2008.68,593.898 2002.4,562.875Z" style="fill:rgb(24,217,48);fill-rule:nonzero;"/>
        <path d="M2002.46,562.933C2002.46,562.933 2020.84,579.48 2043.78,572.745C2043.78,572.745 2032.64,556.611 2002.46,562.933Z" style="fill:rgb(24,217,48);fill-rule:nonzero;"/>
        <path d="M1972.6,554.673C1972.6,554.673 1963.87,578.515 1979.06,597.788C1979.06,597.788 1990.17,581.001 1972.6,554.673Z" style="fill:rgb(24,217,48);fill-rule:nonzero;"/>
        <path d="M1972.67,554.708C1972.67,554.708 1995.96,563.048 2014.63,548.118C2014.63,548.118 1998.2,537.414 1972.67,554.708Z" style="fill:rgb(24,217,48);fill-rule:nonzero;"/>
        <path d="M1929.93,574.627C1929.93,574.627 1946.08,588.617 1965.4,581.18C1965.4,581.18 1955.42,567.15 1929.93,574.627Z" style="fill:rgb(24,217,48);fill-rule:nonzero;"/>
        <path d="M1929.98,574.577C1929.98,574.577 1943.04,557.277 1936.64,537.388C1936.64,537.388 1923.66,548.252 1929.98,574.577Z" style="fill:rgb(24,217,48);fill-rule:nonzero;"/>
        <path d="M1801.29,757.229L1802.04,757.294C1804.34,731.156 1821.65,697.736 1833.11,675.621C1836.3,669.451 1839.06,664.122 1840.73,660.373C1845.37,649.965 1847.56,625.085 1839.62,605.443C1834.93,593.874 1827.63,586.023 1817.9,582.109C1787.67,569.951 1771.76,593.697 1771.6,593.939L1772.23,594.353C1772.39,594.117 1788.01,570.89 1817.62,582.813C1827.15,586.646 1834.31,594.356 1838.91,605.728C1846.78,625.174 1844.62,649.779 1840.04,660.065C1838.38,663.792 1835.62,669.112 1832.43,675.273C1820.95,697.44 1803.6,730.94 1801.29,757.229Z" style="fill:rgb(24,217,48);fill-rule:nonzero;"/>
        <path d="M1820.85,698.52C1820.85,698.52 1808.26,695.461 1799.37,704.265C1799.37,704.265 1808.51,708.933 1820.85,698.52Z" style="fill:rgb(24,217,48);fill-rule:nonzero;"/>
        <path d="M1814.72,712.116C1814.72,712.116 1801.79,711.419 1794.65,721.706C1794.65,721.706 1804.5,724.616 1814.72,712.116Z" style="fill:rgb(24,217,48);fill-rule:nonzero;"/>
        <path d="M1807.94,729.945C1807.94,729.945 1797.28,732.063 1793.62,741.906C1793.62,741.906 1802.23,742.228 1807.94,729.945Z" style="fill:rgb(24,217,48);fill-rule:nonzero;"/>
        <path d="M1803.65,743.291C1803.65,743.291 1793.95,748.193 1793.07,758.658C1793.07,758.658 1801.45,756.656 1803.65,743.291Z" style="fill:rgb(24,217,48);fill-rule:nonzero;"/>
        <path d="M1802.09,753.54C1802.09,753.54 1796.03,762.562 1800.39,772.119C1800.39,772.119 1806.71,766.272 1802.09,753.54Z" style="fill:rgb(24,217,48);fill-rule:nonzero;"/>
        <path d="M1803.73,743.318C1803.73,743.318 1803,754.159 1811.55,760.256C1811.55,760.256 1814.1,752.029 1803.73,743.318Z" style="fill:rgb(24,217,48);fill-rule:nonzero;"/>
        <path d="M1807.94,729.945C1807.94,729.945 1807.21,740.786 1815.76,746.883C1815.76,746.883 1818.31,738.656 1807.94,729.945Z" style="fill:rgb(24,217,48);fill-rule:nonzero;"/>
        <path d="M1815.09,711.934C1815.09,711.934 1812.6,722.51 1820.04,729.924C1820.04,729.924 1823.9,722.225 1815.09,711.934Z" style="fill:rgb(24,217,48);fill-rule:nonzero;"/>
        <path d="M1820.83,698.558C1820.83,698.558 1817.94,710.838 1826.58,719.447C1826.58,719.447 1831.06,710.507 1820.83,698.558Z" style="fill:rgb(24,217,48);fill-rule:nonzero;"/>
        <path d="M1830.15,680.919C1830.15,680.919 1818.28,675.732 1808,682.867C1808,682.867 1816.2,689.044 1830.15,680.919Z" style="fill:rgb(24,217,48);fill-rule:nonzero;"/>
        <path d="M1830.13,680.954C1830.13,680.954 1825.16,692.55 1832.18,702.521C1832.18,702.521 1838.14,694.49 1830.13,680.954Z" style="fill:rgb(24,217,48);fill-rule:nonzero;"/>
        <path d="M1840.72,659.441C1840.72,659.441 1828.27,655.875 1819.03,664.311C1819.03,664.311 1827.97,669.345 1840.72,659.441Z" style="fill:rgb(24,217,48);fill-rule:nonzero;"/>
        <path d="M1840.71,659.479C1840.71,659.479 1837.32,671.632 1845.6,680.584C1845.6,680.584 1850.44,671.833 1840.71,659.479Z" style="fill:rgb(24,217,48);fill-rule:nonzero;"/>
        <path d="M1844.57,636.935C1844.57,636.935 1831.71,638.41 1826.39,649.745C1826.39,649.745 1836.59,650.968 1844.57,636.935Z" style="fill:rgb(24,217,48);fill-rule:nonzero;"/>
        <path d="M1844.57,636.976C1844.57,636.976 1846.1,649.5 1857.17,654.598C1857.17,654.598 1858.3,644.659 1844.57,636.976Z" style="fill:rgb(24,217,48);fill-rule:nonzero;"/>
        <path d="M1842.52,614.577C1842.52,614.577 1827.5,620.111 1824.44,635.275C1824.44,635.275 1837.04,633.763 1842.52,614.577Z" style="fill:rgb(24,217,48);fill-rule:nonzero;"/>
        <path d="M1842.53,614.625C1842.53,614.625 1848.03,629.219 1862.82,632.1C1862.82,632.1 1861.26,619.837 1842.53,614.625Z" style="fill:rgb(24,217,48);fill-rule:nonzero;"/>
        <path d="M1833.19,593.892C1833.19,593.892 1817.35,602.438 1816.35,619.802C1816.35,619.802 1830.13,616.117 1833.19,593.892Z" style="fill:rgb(24,217,48);fill-rule:nonzero;"/>
        <path d="M1833.21,593.943C1833.21,593.943 1841.64,609.313 1858.57,610.169C1858.57,610.169 1854.88,596.769 1833.21,593.943Z" style="fill:rgb(24,217,48);fill-rule:nonzero;"/>
        <path d="M1815.16,581.437C1815.16,581.437 1803.75,595.349 1809.41,611.795C1809.41,611.795 1820.76,603.16 1815.16,581.437Z" style="fill:rgb(24,217,48);fill-rule:nonzero;"/>
        <path d="M1815.2,581.476C1815.2,581.476 1828.83,592.5 1844.82,586.875C1844.82,586.875 1836.33,575.873 1815.2,581.476Z" style="fill:rgb(24,217,48);fill-rule:nonzero;"/>
        <path d="M1781.95,584.814C1781.95,584.814 1789.49,597.95 1804.15,597.489C1804.15,597.489 1800.75,585.77 1781.95,584.814Z" style="fill:rgb(24,217,48);fill-rule:nonzero;"/>
        <path d="M1781.99,584.791C1781.99,584.791 1794.77,576.269 1795.14,561.464C1795.14,561.464 1783.92,565.7 1781.99,584.791Z" style="fill:rgb(24,217,48);fill-rule:nonzero;"/>
        <path d="M1854.5,572.442C1854.5,572.442 1872.98,581.278 1889.62,570.558C1889.62,570.558 1876.99,560.355 1854.5,572.442Z" style="fill:rgb(24,217,48);fill-rule:nonzero;"/>
        <path d="M1854.54,572.388C1854.54,572.388 1863.02,554.331 1852.46,538.195C1852.46,538.195 1842.61,550.565 1854.54,572.388Z" style="fill:rgb(24,217,48);fill-rule:nonzero;"/>
        <path d="M1872.06,548.972C1872.06,548.972 1877.99,563.733 1894.88,566.035C1894.88,566.035 1893.4,553.496 1872.06,548.972Z" style="fill:rgb(24,217,48);fill-rule:nonzero;"/>
        <path d="M1879.24,547.079C1879.24,547.079 1896.79,549.425 1907.62,536.179C1907.62,536.179 1894.51,531.15 1879.24,547.079Z" style="fill:rgb(24,217,48);fill-rule:nonzero;"/>
        <path d="M1904.37,650.979C1904.37,650.979 1881.74,660.485 1878.09,683.925C1878.09,683.925 1897.28,680.744 1904.37,650.979Z" style="fill:rgb(24,217,48);fill-rule:nonzero;"/>
        <path d="M1904.37,650.979C1904.37,650.979 1907.66,675.301 1929.34,684.928C1929.34,684.928 1931.26,665.567 1904.37,650.979Z" style="fill:rgb(24,217,48);fill-rule:nonzero;"/>
        <path d="M1908.79,621.418C1908.79,621.418 1882.83,628.465 1875.47,653.397C1875.47,653.397 1896.78,652.725 1908.79,621.418Z" style="fill:rgb(24,217,48);fill-rule:nonzero;"/>
        <path d="M1908.79,621.418C1908.79,621.418 1908.84,648.315 1931,661.916C1931,661.916 1935.89,641.163 1908.79,621.418Z" style="fill:rgb(24,217,48);fill-rule:nonzero;"/>
        <path d="M1907.62,589.943C1907.62,589.943 1882.81,600.352 1878.8,626.038C1878.8,626.038 1899.84,622.561 1907.62,589.943Z" style="fill:rgb(24,217,48);fill-rule:nonzero;"/>
        <path d="M1907.62,589.943C1907.62,589.943 1911.21,616.599 1934.97,627.159C1934.97,627.159 1937.08,605.941 1907.62,589.943Z" style="fill:rgb(24,217,48);fill-rule:nonzero;"/>
        <path d="M1900.79,566.035C1900.79,566.035 1879.21,582.092 1881.48,607.991C1881.48,607.991 1901.07,599.566 1900.79,566.035Z" style="fill:rgb(24,217,48);fill-rule:nonzero;"/>
        <path d="M1900.79,566.035C1900.79,566.035 1910.68,591.049 1936.27,595.599C1936.27,595.599 1933.24,574.494 1900.79,566.035Z" style="fill:rgb(24,217,48);fill-rule:nonzero;"/>
        <path d="M2299.87,717.917C2299.95,715.635 2327.63,732.991 2337.86,751.435C2354.42,781.286 2341.23,816.416 2328.57,813.103C2320.46,810.978 2318.16,824.828 2318.16,824.828L2239.3,760.985C2239.3,760.985 2268.26,701.05 2299.87,717.917Z" style="fill-rule:nonzero;"/>
        <path d="M2106.37,1069.56C2106.37,1069.56 2090.74,1066.51 2087.17,1069.56C2083.59,1072.61 2066.65,1089.83 2070.28,1095.48C2073.9,1101.13 2091.3,1090.8 2094.92,1089.83C2098.54,1088.85 2108.65,1084.9 2108.65,1084.9L2106.37,1069.56Z" style="fill:rgb(255,178,125);fill-rule:nonzero;"/>
        <path d="M2272.41,1622.02L2289.16,1628.25C2289.16,1628.25 2361.92,1527.34 2370.88,1438.56C2372.48,1422.71 2371.94,1407.36 2368.48,1393.17C2368.48,1393.17 2369.2,1389.11 2370.44,1381.93C2371.01,1378.58 2371.72,1374.55 2372.53,1369.92C2374.9,1356.37 2378.15,1337.83 2381.87,1316.71C2390.43,1268.12 2401.52,1206.01 2410.14,1160.35L2405.63,1158.9L2356.79,1143.14L2346.7,1111.09L2310.33,1101.51C2310.33,1101.51 2302.21,1117.4 2294.95,1192.47C2293.61,1202.32 2292.39,1213.17 2291.48,1224.95C2288.65,1260.89 2288.44,1305.47 2294.94,1356.44C2296.6,1369.49 2298.71,1382.96 2301.32,1396.8C2303.24,1406.95 2303.52,1420.77 2302.72,1436.65C2299.05,1509.22 2272.41,1622.02 2272.41,1622.02Z" style="fill:rgb(49,49,49);fill-rule:nonzero;"/>
        <path d="M2291.48,1224.95L2370.44,1381.93C2371.01,1378.58 2371.72,1374.55 2372.53,1369.92C2374.9,1356.37 2378.15,1337.83 2381.87,1316.71C2390.43,1268.12 2401.52,1206.01 2410.14,1160.35L2405.63,1158.9L2356.79,1143.14L2346.7,1111.09L2310.33,1101.51C2310.33,1101.51 2302.21,1117.4 2294.95,1192.47C2293.61,1202.32 2292.39,1213.17 2291.48,1224.95Z" style="fill:rgb(49,49,49);fill-rule:nonzero;"/>
        <path d="M2326.21,1121.66L2328.04,1105.98C2358.67,1114.12 2440.49,1083.25 2440.49,1083.25C2440.49,1083.25 2470.16,1109.33 2466.27,1171.85C2464.36,1202.36 2460.89,1332.01 2457.26,1370.38C2455.95,1384.29 2454.8,1394.18 2454.34,1398.13L2454.33,1398.17C2454.18,1399.38 2454.6,1400.52 2455.22,1401.57C2460.56,1410.63 2464.98,1420.07 2468.6,1429.73C2504.21,1524.6 2463.12,1641.43 2463.12,1641.43L2452.46,1637.13C2452.46,1637.13 2429.08,1507.11 2410.08,1449.67C2406.86,1439.93 2403.77,1432.27 2400.93,1427.7C2392.67,1414.37 2385.01,1392.58 2378.05,1366.68C2364.9,1317.7 2354.32,1253.98 2347.27,1204.8C2346.3,1204.84 2326.21,1121.66 2326.21,1121.66Z" style="fill-rule:nonzero;"/>
        <path d="M2106.37,1069.56L2108.65,1084.9C2108.65,1084.9 2109.66,1084.9 2111.44,1084.78C2117.02,1084.39 2130.58,1083.63 2145.92,1081.98C2168.99,1079.7 2196.37,1075.65 2207.27,1068.93C2223.88,1058.79 2251.13,1027.73 2268.88,996.672C2269.39,995.913 2269.77,995.153 2270.15,994.392C2279.4,977.912 2285.87,961.559 2286.37,948.503C2286.75,940.517 2285.87,933.671 2284.22,927.713C2282.06,919.854 2278.51,913.643 2274.84,908.952C2274.33,908.191 2273.82,907.431 2273.06,906.797C2266.98,899.572 2261.02,896.53 2261.02,896.53C2257.98,895.261 2254.68,896.783 2251.26,900.458L2251.26,900.585C2248.47,903.502 2245.43,907.937 2242.51,913.516C2242.39,913.643 2242.26,913.77 2242.26,913.896C2241.63,915.037 2240.99,916.304 2240.23,917.698C2239.98,917.952 2239.85,918.333 2239.72,918.586C2238.33,921.502 2236.94,924.544 2235.54,927.713C2219.95,961.686 2203.34,1013.15 2189.53,1028.49C2183.57,1035.08 2156.31,1048.01 2134.64,1057.65C2119.04,1064.49 2106.37,1069.56 2106.37,1069.56Z" style="fill:rgb(255,178,125);fill-rule:nonzero;"/>
        <path d="M2267.71,931.526C2277.32,935.984 2288.93,939.02 2302.98,939.786C2355.63,942.671 2367.58,896.516 2369.76,865.883C2362.17,863.134 2355.52,863.394 2351.69,863.599C2347.96,863.804 2344.06,864.187 2340.85,864.583C2334.4,861.219 2322.83,844.877 2316.15,817.54L2313.88,818.592L2275.89,836.453C2275.89,836.453 2279.92,848.815 2282.9,860.645C2285.23,869.903 2286.9,878.847 2285.5,881.35C2282.51,882.567 2280.71,883.333 2280.71,883.333L2280.7,883.374C2280.32,884.345 2272.06,905.392 2267.71,931.526Z" style="fill:rgb(255,178,125);fill-rule:nonzero;"/>
        <path d="M2254.54,966.07C2254.94,967.124 2255.37,968.149 2255.85,969.202C2269.19,997.921 2293.87,1116.88 2293.87,1116.88C2290.36,1138.27 2454.61,1112.69 2455.04,1093.21C2460.82,1072.56 2434.51,1039.39 2419.67,1022.74C2417.81,1020.65 2416.14,1018.41 2414.69,1016.04C2411.03,1010.11 2408.7,1003.4 2407.97,996.403C2405.05,968.796 2406.16,942.924 2405.92,927.192L2405.91,927.191C2403.02,925.043 2400.21,923.061 2397.6,921.173C2393.61,918.261 2390.08,915.539 2387.48,912.776C2384.62,909.768 2382.83,906.691 2382.63,903.217C2382.47,900.591 2382.56,897.897 2382.83,895.203C2382.95,893.932 2383.12,892.66 2383.31,891.388C2385.36,878.026 2390.94,865.91 2390.94,865.91C2376.81,860.194 2351.69,863.599 2351.69,863.599C2351.69,863.599 2351.72,864.994 2351.73,867.278C2351.81,876.454 2351.73,900.017 2348.79,904.476C2345.11,910.028 2277.81,934.356 2274.26,926.821C2270.76,919.409 2280.34,884.687 2280.7,883.374L2280.71,883.333C2258.18,892.181 2250.12,899.607 2250.12,899.607C2263.7,908.414 2244.04,938.213 2254.54,966.07Z" style="fill:rgb(249,221,191);fill-rule:nonzero;"/>
        <path d="M2275.88,836.461C2275.88,836.461 2279.92,848.812 2282.9,860.652C2305.11,854.457 2311.85,831.114 2313.88,818.601L2275.88,836.461Z" style="fill:rgb(237,152,95);fill-rule:nonzero;"/>
        <path d="M2271.21,849.538C2271.21,849.538 2324.34,837.243 2316.17,804.275C2308,771.308 2309.36,747.517 2275.1,753.974C2240.83,760.43 2237.38,774.637 2237.43,786.304C2237.48,797.971 2257.18,851.887 2271.21,849.538Z" style="fill:rgb(255,178,125);fill-rule:nonzero;"/>
        <path d="M2234.44,767.586C2240.15,755.637 2246.88,756.275 2251.08,758.394C2266.23,744.378 2281.2,745.815 2290.63,749.112C2296.74,751.249 2300.53,754.166 2300.53,754.166C2309.95,776.933 2330.38,786.236 2330.38,786.236C2330.38,786.236 2322.22,794.593 2298.56,794.409C2291.34,794.353 2284.07,791.035 2277.46,786.464C2290.21,799.307 2305.16,807.125 2305.16,807.125C2275.55,801.458 2255.69,767.176 2253.66,763.535C2251.15,767.239 2246.35,775.125 2245.95,781.784C2245.4,790.833 2248.51,808.406 2243.33,809.072C2243.33,809.072 2225.88,785.506 2234.44,767.586Z" style="fill-rule:nonzero;"/>
        <path d="M2250.12,899.601C2250.12,899.601 2237.32,921.916 2235.41,927.658C2235.41,927.658 2252,927.02 2258.7,939.78C2258.7,939.78 2260.3,902.609 2250.12,899.601Z" style="fill:rgb(249,221,191);fill-rule:nonzero;"/>
        <path d="M2338.1,1076.91C2370.49,1076.57 2397.93,1042.93 2414.69,1016.04C2411.03,1010.11 2408.7,1003.4 2407.97,996.403C2405.05,968.796 2406.16,942.924 2405.92,927.192L2405.91,927.191C2403.02,925.043 2400.21,923.061 2397.6,921.173C2393.61,918.261 2390.08,915.539 2387.48,912.776C2360.95,957.619 2294.17,1077.38 2338.1,1076.91Z" style="fill:rgb(249,221,191);fill-rule:nonzero;"/>
        <path d="M2215.64,1094.54L2220.08,1110.76C2220.08,1110.76 2225.65,1109.75 2234.53,1108.1C2237.19,1107.59 2238.71,1107.21 2238.71,1107.21C2245.81,1105.82 2254.3,1103.92 2263.56,1101.89L2263.68,1101.89C2279.53,1098.08 2297.28,1093.52 2312.23,1088.45C2322.75,1084.78 2331.88,1080.85 2338.09,1076.92C2338.73,1076.54 2339.23,1076.15 2339.87,1075.65C2354.7,1064.87 2372.32,1033.18 2386.01,999.208C2387.91,994.519 2389.69,989.828 2391.46,985.265C2397.8,968.277 2402.87,951.545 2405.91,937.094C2407.81,928.475 2409.08,920.614 2409.34,914.148C2409.46,911.868 2409.59,909.713 2409.46,907.684C2409.21,870.923 2390.95,865.852 2390.95,865.852C2390.57,865.725 2390.19,865.598 2389.69,865.473C2386.52,864.965 2383.22,867.119 2379.8,871.304C2375.49,876.5 2370.92,884.994 2366.24,895.261C2359.01,911.614 2351.4,932.784 2344.3,953.828C2340.38,965.362 2336.57,976.898 2332.77,987.546C2330.61,994.011 2328.46,1000.1 2326.43,1005.67C2322.5,1016.32 2318.95,1024.94 2315.78,1030.39C2313.75,1033.94 2307.92,1038.89 2300.19,1044.46C2286.75,1054.22 2267.11,1066.01 2249.99,1075.65C2242.89,1079.7 2236.17,1083.38 2230.6,1086.42C2221.6,1091.37 2215.64,1094.54 2215.64,1094.54Z" style="fill:rgb(255,178,125);fill-rule:nonzero;"/>
        <path d="M2366.28,895.313C2390.68,888.586 2409.51,907.64 2409.51,907.64C2409.2,870.938 2390.93,865.914 2390.93,865.914C2383.58,862.871 2375.07,875.599 2366.28,895.313Z" style="fill:rgb(249,221,191);fill-rule:nonzero;"/>
        <path d="M2401.14,1650.14L2485.5,1650.14C2485.5,1650.14 2487.53,1637.28 2483.12,1627.53C2478.9,1618.17 2472.28,1613.91 2473.87,1602.58C2468.51,1608.1 2459.77,1614.29 2447.57,1612.65C2446.08,1615.07 2437.92,1628.03 2432.93,1631.62C2427.42,1635.58 2402.83,1634.17 2401.14,1650.14Z" style="fill:rgb(20,0,0);fill-rule:nonzero;"/>
        <path d="M2219.99,1650.14L2304.36,1650.14C2304.36,1650.14 2307.51,1636.68 2301.97,1627.53C2297.07,1619.42 2298.95,1614.81 2302.58,1608.11C2298.76,1609.67 2293.81,1611.09 2288.37,1610.78C2284.17,1610.54 2279.72,1608.63 2275.82,1606.37C2272.19,1610.51 2256.64,1628.13 2251.79,1631.62C2246.27,1635.58 2221.69,1634.17 2219.99,1650.14Z" style="fill:rgb(20,0,0);fill-rule:nonzero;"/>
        <path d="M2102.07,1130.07L2079.27,1139.42C2073.07,1141.96 2069.81,1148.7 2071.41,1155.03L2068.96,1156.03C2059.69,1123.8 2071,1091.31 2096.46,1080.87C2100.03,1079.41 2103.71,1078.44 2107.42,1077.98C2119.15,1076.43 2131.36,1079.59 2142.34,1086.44C2152.77,1092.93 2162.08,1102.77 2168.78,1115.11L2165.42,1116.49C2162.12,1110.88 2155.07,1108.36 2148.88,1110.89L2126.06,1120.24C2124.28,1115.89 2120.04,1113.25 2115.6,1113.25C2114.19,1113.25 2112.75,1113.53 2111.38,1114.09L2108.22,1115.38C2102.49,1117.74 2099.72,1124.34 2102.07,1130.07ZM2210.62,1169.71L2190.57,1120.8C2187.96,1114.42 2180.96,1111.11 2174.46,1112.9C2167.82,1100.42 2158.67,1090.27 2148.3,1083.15C2137.38,1075.63 2125.11,1071.48 2113,1071.53C2106.61,1071.56 2100.24,1072.77 2094.16,1075.26C2065.65,1086.94 2052.88,1122.96 2063.34,1158.33L2061.78,1158.97C2061.78,1158.97 2056.91,1158.63 2048.73,1158.63C2022.91,1158.63 1964.22,1162.06 1923.04,1190.66C1923.04,1190.66 1920.46,1193.41 1920.36,1197.62C1920.3,1199.01 1920.54,1200.57 1921.23,1202.23C1921.23,1202.23 1987.32,1159.43 2048.46,1203.42C2052.21,1206.11 2055.85,1208.6 2059.4,1210.91L2064.88,1224.3C2073.98,1246.49 2099.56,1257.2 2121.76,1248.1L2177.75,1225.16L2189.42,1220.37C2209.18,1212.28 2218.73,1189.47 2210.62,1169.71Z" style="fill:rgb(142,255,118);fill-rule:nonzero;"/>
        <path d="M2059.4,1210.91C2055.85,1208.6 2052.21,1206.11 2048.46,1203.42C1987.32,1159.43 1921.23,1202.23 1921.23,1202.23C1920.54,1200.57 1920.3,1199.01 1920.36,1197.62C1929.61,1191.53 1964.29,1171.26 2007.26,1178.18C2057.61,1186.3 2066.72,1193.31 2059.4,1210.91Z" style="fill:rgb(24,217,48);fill-rule:nonzero;"/>
        <path d="M2189.42,1220.37L2177.75,1225.16C2195.24,1215.61 2173.58,1175.26 2160.91,1148.62C2148.24,1121.99 2129.07,1134.16 2129.07,1134.16C2124.68,1125.23 2115.27,1125.71 2115.27,1125.71C2114.78,1117.11 2108.22,1115.38 2108.22,1115.38L2111.38,1114.09C2112.75,1113.53 2114.19,1113.25 2115.6,1113.25C2120.04,1113.25 2124.28,1115.89 2126.06,1120.24L2148.88,1110.89C2155.07,1108.36 2162.12,1110.88 2165.42,1116.49L2168.78,1115.11C2162.08,1102.77 2152.77,1092.93 2142.34,1086.44C2131.36,1079.59 2119.15,1076.43 2107.42,1077.98C2109.26,1076.5 2111.23,1074.43 2113,1071.53C2125.11,1071.48 2137.38,1075.63 2148.3,1083.15C2158.67,1090.27 2167.82,1100.42 2174.46,1112.9C2180.96,1111.11 2187.96,1114.42 2190.57,1120.8L2210.62,1169.71C2218.73,1189.47 2209.18,1212.28 2189.42,1220.37Z" style="fill:rgb(24,217,48);fill-rule:nonzero;"/>
        <path d="M2163.16,1110.25C2171.27,1113.68 2182.68,1125.59 2200.93,1118.37C2213.99,1113.3 2227.81,1109.75 2234.53,1108.1C2237.19,1107.59 2238.71,1107.21 2238.71,1107.21L2231.48,1086.17C2231.48,1086.17 2231.23,1086.3 2230.6,1086.42C2225.91,1087.44 2202.08,1092.51 2190.92,1089.97C2178.37,1087.06 2157.33,1102.14 2157.33,1102.14C2157.33,1102.14 2155.04,1106.96 2163.16,1110.25Z" style="fill:rgb(255,178,125);fill-rule:nonzero;"/>
        <path d="M1924.91,1218.9C1924.91,1216.39 1920.35,1208.62 1920.35,1208.62C1920.35,1208.62 1915.79,1216.39 1915.79,1218.9C1915.79,1221.42 1917.83,1223.46 1920.35,1223.46C1922.87,1223.46 1924.91,1221.42 1924.91,1218.9Z" style="fill:rgb(175,205,251);fill-rule:nonzero;"/>
        <path d="M1924.91,1248.62C1924.91,1246.1 1920.35,1238.33 1920.35,1238.33C1920.35,1238.33 1915.79,1246.1 1915.79,1248.62C1915.79,1251.13 1917.83,1253.17 1920.35,1253.17C1922.87,1253.17 1924.91,1251.13 1924.91,1248.62Z" style="fill:rgb(175,205,251);fill-rule:nonzero;"/>
        <path d="M1734.44,1519.77C1730.41,1519.77 1727.13,1516.5 1727.13,1512.47C1727.13,1508.43 1730.41,1505.16 1734.44,1505.16L2161.42,1505.16C2165.45,1505.16 2168.73,1508.43 2168.73,1512.47C2168.73,1516.5 2165.45,1519.77 2161.42,1519.77L1734.44,1519.77Z" style="fill-rule:nonzero;"/>
        <path d="M1773.99,1650.14L1768.01,1650.14L1789.4,1519.77L1803.67,1519.77L1773.99,1650.14Z" style="fill-rule:nonzero;"/>
        <path d="M2119.74,1650.14L2125.72,1650.14L2104.33,1519.77L2090.06,1519.77L2119.74,1650.14Z" style="fill-rule:nonzero;"/>
        <rect x="1785.84" y="1556.43" width="322.05" height="9.16" style="fill-rule:nonzero;"/>
        <path d="M2028.12,1406.85C2028.12,1459.82 1985.19,1502.75 1932.23,1502.75C1879.27,1502.75 1836.33,1459.82 1836.33,1406.85L2028.12,1406.85Z" style="fill:rgb(162,135,106);fill-rule:nonzero;"/>
        <path d="M2030.14,1409.04L1834.31,1409.04C1832.78,1409.04 1831.54,1407.8 1831.54,1406.27C1831.54,1404.74 1832.78,1403.5 1834.31,1403.5L2030.14,1403.5C2031.67,1403.5 2032.91,1404.74 2032.91,1406.27C2032.91,1407.8 2031.67,1409.04 2030.14,1409.04Z" style="fill:rgb(162,135,106);fill-rule:nonzero;"/>
        <path d="M1966.91,1505.16L1897.37,1505.16L1899.55,1496.88L1964.91,1496.88L1966.91,1505.16Z" style="fill:rgb(162,135,106);fill-rule:nonzero;"/>
        <path d="M1887.37,1403.5C1887.37,1403.5 1854.73,1318.54 1842.2,1312.47C1829.68,1306.4 1800.83,1296.06 1777.29,1309.96C1753.76,1323.86 1739.72,1357.51 1739.72,1357.51C1739.72,1357.51 1756.8,1364.4 1795.51,1354.57C1834.23,1344.74 1840.68,1321.58 1844.1,1323.86C1847.52,1326.14 1881.68,1403.49 1881.68,1403.49L1887.37,1403.5Z" style="fill:rgb(142,255,118);fill-rule:nonzero;"/>
        <path d="M1983.02,1403.5C1983.02,1403.5 1989.6,1281.25 2025.03,1264.72C2060.45,1248.2 2089.81,1270.92 2095.37,1292.96C2100.94,1315 2099.42,1365.04 2107.52,1380.51C2107.52,1380.51 2054.89,1376.68 2049.83,1339.51C2044.77,1302.35 2025.53,1274.66 2020.98,1277.12C2016.42,1279.58 1990.61,1316.37 1989.6,1403.49L1983.02,1403.5Z" style="fill:rgb(24,217,48);fill-rule:nonzero;"/>
        <path d="M1918.24,1403.49C1918.24,1403.49 1898,1256.09 1864.09,1235.04C1830.18,1213.99 1772.99,1213.99 1770.97,1213.99C1768.94,1213.99 1788.18,1245.3 1822.08,1267.25C1855.99,1289.19 1885.41,1285.36 1887.37,1290.2C1905.91,1336.02 1910.14,1403.5 1910.14,1403.5L1918.24,1403.49Z" style="fill:rgb(142,255,118);fill-rule:nonzero;"/>
        <path d="M1932.23,1403.49C1932.23,1403.49 1931.4,1308.69 1908.12,1301.98C1884.84,1295.27 1850.79,1321.26 1844.53,1354.57C1844.53,1354.57 1838.98,1376.68 1831.54,1384.56C1831.54,1384.56 1848.4,1391.93 1866.11,1388.39C1883.83,1384.84 1898.76,1364.85 1899.77,1347.65C1900.78,1330.44 1907.36,1307.3 1910.4,1308.75C1913.43,1310.2 1917.74,1318.8 1920.77,1332.72C1923.81,1346.63 1926.09,1403.49 1926.09,1403.49L1932.23,1403.49Z" style="fill:rgb(24,217,48);fill-rule:nonzero;"/>
        <path d="M1945.06,1403.5C1945.06,1403.5 1931.4,1293.75 1938.49,1269.96C1945.57,1246.17 1979.99,1225.93 2005.29,1224.92C2005.29,1224.92 2002.76,1255.28 1996.18,1274.52C1989.6,1293.75 1945.06,1298.16 1944.05,1307.09C1943.04,1316.01 1950.38,1403.49 1950.38,1403.49L1945.06,1403.5Z" style="fill:rgb(142,255,118);fill-rule:nonzero;"/>
        <path d="M1961.01,1403.49C1961.01,1403.49 1954.36,1365.61 1955.31,1356.5C1956.26,1347.39 1966.32,1332.21 1974.1,1327.66C1974.1,1327.66 1973.53,1348.72 1977.14,1357.26C1980.74,1365.8 1960.82,1384.21 1961.2,1386.87C1961.58,1389.53 1964.23,1403.49 1964.23,1403.49L1961.01,1403.49Z" style="fill:rgb(24,217,48);fill-rule:nonzero;"/>
        <path d="M2299.87,717.917C2299.87,717.917 2306.69,697.922 2335.28,701.903C2363.87,705.883 2369.7,732.754 2387.89,743.104C2407.67,754.357 2418.51,774.63 2414.69,801.263C2411.74,821.914 2371.01,836.07 2356.17,827.336C2338.14,816.729 2343.43,807.757 2349.75,789.84C2362.42,753.966 2327.68,720.328 2309.22,727.4C2290.77,734.472 2299.87,717.917 2299.87,717.917Z" style="fill-rule:nonzero;"/>
        <path d="M2737.15,1469.38L2737.15,1616.93C2737.15,1634.64 2722.65,1649.14 2704.94,1649.14L2608.62,1649.14C2590.9,1649.14 2576.4,1634.64 2576.4,1616.93L2576.4,1469.38L2737.15,1469.38Z" style="fill:rgb(162,135,106);fill-rule:nonzero;"/>
        <path d="M2628.15,1469.54C2628.01,1468.39 2612.74,1353.97 2553.34,1297.21L2554.94,1295.53C2614.95,1352.87 2630.31,1468.09 2630.46,1469.25L2628.15,1469.54Z" style="fill:rgb(168,210,159);fill-rule:nonzero;"/>
        <path d="M2655.61,1469.43C2653.13,1396.68 2672.26,1244.51 2672.45,1242.98L2674.75,1243.27C2674.56,1244.8 2655.46,1396.79 2657.94,1469.36L2655.61,1469.43Z" style="fill:rgb(168,210,159);fill-rule:nonzero;"/>
        <path d="M2691.76,1469.5L2689.45,1469.29C2692.73,1434.07 2715.22,1413.55 2733.52,1402.53C2753.27,1390.64 2772.52,1386.98 2772.72,1386.95L2773.14,1389.23C2772.95,1389.27 2754.05,1392.87 2734.65,1404.56C2716.84,1415.3 2694.95,1435.28 2691.76,1469.5Z" style="fill:rgb(168,210,159);fill-rule:nonzero;"/>
        <path d="M2561.7,1304.15C2561.7,1304.15 2556.83,1260.8 2534.68,1260.13C2512.53,1259.46 2490.61,1264.15 2490.61,1264.15C2490.61,1264.15 2506.71,1272.76 2514.32,1282.1C2521.93,1291.45 2561.7,1304.15 2561.7,1304.15Z" style="fill:rgb(142,255,118);fill-rule:nonzero;"/>
        <path d="M2576.07,1322.29C2576.07,1322.29 2548.33,1318.29 2538.03,1326.35C2527.74,1334.4 2531.32,1359.01 2531.32,1359.01C2531.32,1359.01 2544.75,1355.43 2554.14,1349.16C2563.54,1342.9 2568.01,1339.34 2572.04,1330.82L2576.07,1322.29Z" style="fill:rgb(142,255,118);fill-rule:nonzero;"/>
        <path d="M2629.31,1466.33C2629.31,1466.33 2592.02,1445.34 2572.93,1451.13C2553.84,1456.93 2545.37,1493.93 2545.37,1493.93C2545.37,1493.93 2566.45,1496.24 2583.28,1492.5C2600.11,1488.76 2608.44,1486.16 2618.88,1476.25L2629.31,1466.33Z" style="fill:rgb(24,217,48);fill-rule:nonzero;"/>
        <path d="M2673.6,1244.04C2674.39,1244.67 2661.52,1221.55 2647.76,1224.24C2634.01,1226.92 2617.56,1240.01 2617.56,1240.01C2617.56,1240.01 2637.03,1242.7 2645.58,1245.38C2654.14,1248.06 2668.57,1240.01 2673.6,1244.04Z" style="fill:rgb(24,217,48);fill-rule:nonzero;"/>
        <path d="M2768.12,1389.62C2768.14,1390.53 2758.39,1365.17 2768.05,1360.47C2777.72,1355.76 2796.51,1358.21 2796.51,1358.21C2796.51,1358.21 2787.6,1370.17 2784.78,1376.66C2781.96,1383.15 2767.98,1383.8 2768.12,1389.62Z" style="fill:rgb(142,255,118);fill-rule:nonzero;"/>
        <path d="M2673.6,1243.81C2673.6,1243.81 2673.38,1233.85 2684.79,1228.48C2684.79,1228.48 2687.25,1234.97 2684.79,1239.67C2682.33,1244.37 2673.6,1243.81 2673.6,1243.81Z" style="fill:rgb(24,217,48);fill-rule:nonzero;"/>
        <path d="M2712.08,1420.38C2712.08,1420.38 2702.42,1417.94 2700.29,1405.51C2700.29,1405.51 2707.2,1404.87 2711.07,1408.49C2714.95,1412.12 2712.08,1420.38 2712.08,1420.38Z" style="fill:rgb(142,255,118);fill-rule:nonzero;"/>
        <path d="M2672.71,1251.92C2672.71,1251.92 2682.77,1247.89 2689.26,1248.78C2695.75,1249.68 2702.24,1266.23 2702.24,1266.23C2702.24,1266.23 2688.81,1266.01 2684.34,1264.22C2679.87,1262.43 2676.73,1251.47 2672.71,1251.92Z" style="fill:rgb(24,217,48);fill-rule:nonzero;"/>
        <path d="M2735.08,1403.84C2735.08,1403.84 2744.09,1397.81 2750.62,1397.33C2757.15,1396.85 2766.94,1411.69 2766.94,1411.69C2766.94,1411.69 2753.77,1414.27 2749.02,1413.45C2744.27,1412.63 2738.92,1402.57 2735.08,1403.84Z" style="fill:rgb(142,255,118);fill-rule:nonzero;"/>
        <path d="M2669.58,1277.37C2669.58,1277.37 2652.13,1264.28 2638.26,1266.23C2624.39,1268.18 2610.96,1286.08 2610.96,1286.08C2610.96,1286.08 2626.62,1291 2635.35,1289.66C2644.07,1288.32 2655.48,1282.61 2658.5,1279.59C2661.52,1276.57 2669.58,1277.37 2669.58,1277.37Z" style="fill:rgb(142,255,118);fill-rule:nonzero;"/>
        <path d="M2666.84,1273.96C2666.84,1273.96 2669.6,1266.13 2664.42,1261.08C2659.24,1256.04 2657.66,1254.53 2657.66,1254.53C2657.66,1254.53 2656.17,1260.37 2657.71,1265.08C2659.25,1269.79 2666.84,1273.96 2666.84,1273.96Z" style="fill:rgb(24,217,48);fill-rule:nonzero;"/>
        <path d="M2666.56,1307.03C2666.56,1307.03 2694.74,1292.23 2713.2,1302.63C2731.65,1313.04 2737.69,1337.53 2737.69,1337.53C2737.69,1337.53 2705.14,1336.86 2694.41,1328.47C2683.67,1320.08 2684.54,1308 2679.74,1307.33C2674.94,1306.66 2666.56,1307.03 2666.56,1307.03Z" style="fill:rgb(142,255,118);fill-rule:nonzero;"/>
        <path d="M2661.11,1367.32C2661.11,1367.32 2669.5,1347.88 2683.39,1345.55C2697.29,1343.21 2710.65,1353.36 2710.65,1353.36C2710.65,1353.36 2693.54,1366.62 2684.48,1366.77C2675.42,1366.92 2670.82,1360.31 2668.05,1361.96C2665.29,1363.62 2661.11,1367.32 2661.11,1367.32Z" style="fill:rgb(142,255,118);fill-rule:nonzero;"/>
        <path d="M2700.29,1435.19C2700.29,1435.19 2737.69,1415.55 2762.18,1429.35C2786.67,1443.16 2794.68,1475.66 2794.68,1475.66C2794.68,1475.66 2751.5,1474.77 2737.25,1463.64C2723,1452.51 2724.16,1436.48 2717.79,1435.59C2711.42,1434.7 2700.29,1435.19 2700.29,1435.19Z" style="fill:rgb(142,255,118);fill-rule:nonzero;"/>
        <path d="M2759.84,1390.98C2759.84,1390.98 2788.03,1376.19 2806.49,1386.59C2824.94,1396.99 2830.98,1421.49 2830.98,1421.49C2830.98,1421.49 2798.43,1420.82 2787.69,1412.43C2776.96,1404.04 2777.83,1391.96 2773.03,1391.29C2768.23,1390.61 2759.84,1390.98 2759.84,1390.98Z" style="fill:rgb(142,255,118);fill-rule:nonzero;"/>
        <path d="M2664.08,1321.3C2664.08,1321.3 2661.44,1306.11 2647.39,1304.15C2633.33,1302.19 2619.35,1321.3 2619.35,1321.3C2619.35,1321.3 2632.44,1325.67 2639.82,1325.67C2647.2,1325.67 2654.71,1314.14 2658.34,1316.66C2661.97,1319.19 2664.08,1321.3 2664.08,1321.3Z" style="fill:rgb(24,217,48);fill-rule:nonzero;"/>
        <path d="M2661.97,1386.2C2661.97,1386.2 2640.2,1360.17 2611.26,1371.92C2582.32,1383.67 2576.74,1435.5 2576.74,1435.5C2576.74,1435.5 2606.49,1429.41 2620.56,1421.27C2634.63,1413.14 2636.22,1382.89 2645.91,1383.7C2655.61,1384.51 2661.97,1386.2 2661.97,1386.2Z" style="fill:rgb(24,217,48);fill-rule:nonzero;"/>
        <path d="M2702.26,1435.91C2702.26,1435.91 2704.56,1419.54 2693.25,1414.08C2681.95,1408.63 2664.42,1425.01 2664.42,1425.01C2664.42,1425.01 2674.19,1432.73 2680.43,1434.52C2686.68,1436.32 2696.47,1426.21 2698.78,1429.71C2701.1,1433.2 2702.26,1435.91 2702.26,1435.91Z" style="fill:rgb(24,217,48);fill-rule:nonzero;"/>
        <path d="M1715.29,994.704C1715.29,994.704 1709.12,939.986 1732.8,893.875C1735.31,888.986 1741.54,890.218 1742.57,895.813C1746.25,915.875 1749.92,955.946 1732.95,998.521C1708.8,1059.1 1715.29,994.704 1715.29,994.704Z" style="fill:rgb(142,255,118);fill-rule:nonzero;"/>
        <path d="M1743.56,1005.52C1743.56,1005.52 1747.43,950.594 1779.08,909.545C1782.43,905.192 1788.34,907.535 1788.33,913.224C1788.31,933.62 1784.65,973.693 1760.24,1012.48C1725.5,1067.68 1743.56,1005.52 1743.56,1005.52Z" style="fill:rgb(142,255,118);fill-rule:nonzero;"/>
        <path d="M1727.81,994.582C1727.81,994.582 1727.92,939.518 1756.7,896.405C1759.75,891.834 1765.8,893.768 1766.18,899.445C1767.56,919.794 1766.64,960.023 1744.93,1000.39C1714.03,1057.82 1727.81,994.582 1727.81,994.582Z" style="fill:rgb(24,217,48);fill-rule:nonzero;"/>
        <path d="M1746.41,997.364C1746.41,997.364 1757.28,955.77 1787.47,928.821C1790.67,925.963 1794.86,928.61 1794.04,932.975C1791.09,948.624 1782.52,978.847 1758.21,1005.1C1723.62,1042.46 1746.41,997.364 1746.41,997.364Z" style="fill:rgb(24,217,48);fill-rule:nonzero;"/>
        <path d="M1463.79,1582.37C1463.79,1582.37 1448.87,1595.98 1451.78,1605.66C1454.7,1615.33 1468.16,1621.78 1469.98,1633.61C1471.8,1645.43 1479.08,1651.88 1485.63,1651.88L1516.85,1651.88C1516.85,1651.88 1521.67,1643.56 1510.03,1641.05C1498.38,1638.54 1493.99,1624.65 1494.72,1611.75C1495.45,1598.85 1493.63,1581.65 1493.63,1581.65L1468.89,1575.92L1463.79,1582.37Z" style="fill:rgb(20,0,0);fill-rule:nonzero;"/>
        <path d="M1590.07,1589.55C1590.07,1589.55 1584.7,1647.23 1591.25,1650.46L1675.07,1650.29C1675.07,1650.29 1675.07,1640.61 1661.61,1638.46C1648.14,1636.31 1624.49,1628.43 1620.49,1610.87C1616.49,1593.32 1590.07,1589.55 1590.07,1589.55Z" style="fill:rgb(20,0,0);fill-rule:nonzero;"/>
        <path d="M1658.51,1114.8C1658.51,1114.8 1682.68,1190.03 1684.23,1215.64C1685.78,1241.25 1638.03,1579.45 1636.11,1591.25C1634.3,1602.38 1620.49,1609.47 1620.49,1609.47C1620.49,1609.47 1614.14,1613.22 1605.07,1610.66C1592.49,1607.1 1588.51,1602.85 1588.51,1602.85C1588.51,1602.85 1569.7,1361.64 1581.34,1275.48C1592.98,1189.32 1593.12,1114.8 1593.12,1114.8L1658.51,1114.8Z" style="fill:rgb(49,49,49);fill-rule:nonzero;"/>
        <path d="M1556.12,1112.56C1556.12,1112.56 1519.26,1162.02 1515.82,1195.46C1512.38,1228.89 1510.43,1346.34 1503.11,1378.93C1495.79,1411.53 1468.89,1474.25 1468.89,1575.92C1468.89,1575.92 1471.68,1581.75 1480.32,1584.85C1483.08,1585.84 1486.78,1586.81 1490.37,1587.63C1497.49,1589.26 1504.79,1585.78 1508.04,1579.24C1526.23,1542.62 1584.16,1424.52 1587.13,1400.01C1589.23,1382.66 1607.52,1267.84 1647.42,1200.46C1657,1184.29 1641.54,1119.96 1641.54,1119.96L1556.12,1112.56Z" style="fill-rule:nonzero;"/>
        <path d="M1550.7,754.612C1549.82,752.468 1539.48,729.681 1504.4,742.118C1504.4,742.118 1522.2,737.493 1528.01,744.047C1528.01,744.047 1512.88,739.088 1504.57,745.879C1496.27,752.67 1497.05,771.908 1499.08,777.538C1501.11,783.168 1513.07,799.177 1519.63,798.35C1522.12,798.037 1524.67,796.849 1526.89,795.496C1526.25,798.69 1525.74,802.138 1525.42,805.888C1522.46,840.573 1547.32,863.522 1557.85,855.75C1564.6,850.767 1571.62,863.124 1571.62,863.124L1621.92,773.553C1621.92,773.553 1573.95,727.02 1550.7,754.612Z" style="fill-rule:nonzero;"/>
        <path d="M1645.07,965.577C1597.42,987.523 1561.6,910.061 1564.71,909.267C1569.48,903.713 1574.39,883.927 1570.9,855.447L1573.37,855.623L1614.8,858.785C1614.8,858.785 1615.45,872.032 1616.88,884.388C1617.82,892.512 1619.12,900.254 1620.8,903.633C1621.3,904.631 1630.28,905.97 1630.3,905.991C1631,906.776 1657.78,959.727 1645.07,965.577Z" style="fill:rgb(255,178,125);fill-rule:nonzero;"/>
        <path d="M1678.84,989.649C1681.93,1001.29 1684.46,1011.72 1685.71,1018.75C1691.44,1051.15 1688.56,1215.86 1688.56,1215.86C1604.49,1247.92 1503.83,1206.65 1503.83,1206.65C1500.7,1175.94 1512.67,1107.64 1519.94,1046.87C1521.72,1031.97 1523.21,1017.54 1524.15,1004.22C1524.96,992.606 1526.28,982.292 1527.98,973.119C1540.07,908.17 1571.15,901.036 1571.15,901.036C1585.68,930.119 1631.53,937.95 1631.53,937.95C1632.1,921.582 1626.96,900.733 1626.96,900.733C1632.76,901.449 1652.34,903.916 1657.63,906.556C1673.33,914.387 1710.55,980.024 1710.55,980.024C1710.55,980.024 1720.19,975.642 1678.84,989.649Z" style="fill:rgb(249,221,191);fill-rule:nonzero;"/>
        <path d="M1614.81,858.792C1614.81,858.792 1615.44,872.03 1616.88,884.395C1594.17,886.589 1579.67,866.812 1573.37,855.631L1614.81,858.792Z" style="fill:rgb(237,152,95);fill-rule:nonzero;"/>
        <path d="M1623.76,869.544C1623.76,869.544 1570.3,877.203 1566.19,842.82C1562.07,808.438 1552.4,786.27 1586.36,779.926C1620.31,773.583 1628.53,785.858 1632.61,796.99C1636.69,808.122 1637.55,866.666 1623.76,869.544Z" style="fill:rgb(255,178,125);fill-rule:nonzero;"/>
        <path d="M1628.75,778.071C1619.24,768.771 1613.25,771.829 1610.12,775.38C1578.87,762.48 1562.92,789.383 1562.92,789.383C1562.26,814.507 1546.67,830.816 1546.67,830.816C1546.67,830.816 1557.17,835.802 1578.97,827.001C1585.63,824.313 1591.17,818.504 1595.66,811.739C1588.42,828.622 1577.37,841.521 1577.37,841.521C1602.73,825.326 1608.96,785.429 1609.55,781.219C1613.18,783.833 1620.41,789.595 1623.13,795.791C1626.84,804.211 1630.18,822.087 1635.21,820.832C1635.21,820.832 1643,792.019 1628.75,778.071Z" style="fill-rule:nonzero;"/>
        <path d="M1570.92,890.823C1570.92,890.823 1564.65,896.132 1564.63,904.008C1564.63,904.008 1574.42,931.556 1631.53,937.95C1631.53,937.95 1576.95,911.306 1570.92,890.823Z" style="fill:rgb(234,195,162);fill-rule:nonzero;"/>
        <path d="M1619.44,902.033C1619.44,902.033 1631.94,924.66 1631.53,937.95C1631.53,937.95 1632.51,907.747 1630.47,900.733C1628.43,893.719 1617.3,887.829 1617.3,887.829L1619.44,902.033Z" style="fill:rgb(234,195,162);fill-rule:nonzero;"/>
        <path d="M1606.94,851.503C1607.43,851.503 1612,855.708 1618.04,854.531C1624.08,853.354 1624.02,848.476 1624.02,848.476C1624.02,848.476 1619.9,847.803 1616.28,848.476C1612.65,849.148 1606.94,851.503 1606.94,851.503Z" style="fill:white;fill-rule:nonzero;"/>
        <path d="M1705.79,1001.12C1705.79,1001.12 1711.95,946.401 1688.28,900.29C1685.77,895.4 1679.54,896.633 1678.51,902.229C1674.83,922.289 1671.16,962.361 1688.13,1004.94C1712.27,1065.52 1705.79,1001.12 1705.79,1001.12Z" style="fill:rgb(142,255,118);fill-rule:nonzero;"/>
        <path d="M1677.52,1011.94C1677.52,1011.94 1673.65,957.009 1642,915.96C1638.64,911.607 1632.74,913.95 1632.74,919.639C1632.76,940.035 1636.42,980.107 1660.84,1018.9C1695.58,1074.09 1677.52,1011.94 1677.52,1011.94Z" style="fill:rgb(142,255,118);fill-rule:nonzero;"/>
        <path d="M1693.26,1001C1693.26,1001 1693.15,945.933 1664.38,902.82C1661.33,898.249 1655.28,900.183 1654.89,905.859C1653.52,926.209 1654.44,966.438 1676.15,1006.8C1707.04,1064.24 1693.26,1001 1693.26,1001Z" style="fill:rgb(24,217,48);fill-rule:nonzero;"/>
        <path d="M1725.32,1003.96C1725.32,1003.96 1735.7,949.883 1715.67,902.077C1713.54,897.008 1707.23,897.753 1705.78,903.253C1700.55,922.969 1693.79,962.636 1707.41,1006.4C1726.79,1068.67 1725.32,1003.96 1725.32,1003.96Z" style="fill:rgb(24,217,48);fill-rule:nonzero;"/>
        <path d="M1674.66,1003.78C1674.66,1003.78 1663.8,962.185 1633.61,935.236C1630.41,932.378 1626.21,935.025 1627.04,939.39C1629.98,955.038 1638.56,985.262 1662.87,1011.52C1697.46,1048.88 1674.66,1003.78 1674.66,1003.78Z" style="fill:rgb(24,217,48);fill-rule:nonzero;"/>
        <path d="M1741.21,1094.41L1681.85,1094.41C1657.2,1094.41 1637.03,1074.24 1637.03,1049.59L1637.03,995.458C1637.03,994.166 1638.08,993.107 1639.38,993.107L1786.03,993.107L1786.03,1049.59C1786.03,1074.24 1765.86,1094.41 1741.21,1094.41Z" style="fill:rgb(162,135,106);fill-rule:nonzero;"/>
        <path d="M1560.85,966.87C1543.91,959.322 1531.88,974.902 1535.05,993.181C1543.82,1043.91 1564.68,1116.7 1581.76,1121.89C1607.42,1129.67 1699.69,1070.59 1699.69,1070.59L1689.11,1055.24C1689.11,1055.24 1610.17,1078.65 1608.78,1075.01C1607.39,1071.37 1579.31,975.093 1579.31,975.093L1560.85,966.87Z" style="fill:rgb(255,178,125);fill-rule:nonzero;"/>
        <path d="M1689.11,1055.24C1689.11,1055.24 1688.97,1050.56 1694.47,1047.99C1699.98,1045.42 1705.4,1044.36 1709.88,1041.19C1714.36,1038.03 1714.46,1042 1712.52,1045.12C1710.58,1048.24 1706.53,1049.42 1709.27,1050.33C1712.01,1051.24 1722.99,1044.64 1731.6,1041.74C1736.23,1040.19 1734.65,1058.06 1730.08,1061.58C1726.11,1064.63 1715.45,1070.3 1706.58,1071.19C1695.55,1072.3 1687.54,1078.1 1687.54,1078.1L1689.11,1055.24Z" style="fill:rgb(255,178,125);fill-rule:nonzero;"/>
        <path d="M1568.5,928.047C1568.5,928.047 1545.79,936.705 1537.87,948.559C1529.94,960.413 1528.97,998.257 1541.24,1047.46C1541.24,1047.46 1588.11,1032.61 1612.3,1007.42C1612.3,1007.42 1593.45,920.934 1568.5,928.047Z" style="fill:rgb(249,221,191);fill-rule:nonzero;"/>
        <path d="M2142.14,505.719C2142.14,487.833 2156.64,473.334 2174.53,473.334C2192.41,473.334 2206.91,487.833 2206.91,505.719C2206.91,523.605 2192.41,538.104 2174.53,538.104C2156.64,538.104 2142.14,523.605 2142.14,505.719Z" style="fill:rgb(249,221,191);fill-rule:nonzero;"/>
        <path d="M2171.75,295.193L2171.75,410.595C2171.75,415.778 2171.9,420.656 2172.05,425.23L2172.05,425.535C2172.05,426.754 2172.21,427.974 2172.21,429.193C2173.12,444.896 2174.95,455.872 2177.09,455.872L2177.85,455.872C2180.29,455.872 2182.27,443.218 2183.03,425.687C2183.18,420.961 2183.34,415.931 2183.34,410.595L2183.34,296.412L2171.75,295.193Z" style="fill:rgb(162,135,106);fill-rule:nonzero;"/>
        <path d="M2174.53,425.088C2132.41,425.088 2098.27,461.188 2098.27,505.719L2250.78,505.719C2250.78,461.188 2216.64,425.088 2174.53,425.088Z" style="fill:rgb(162,135,106);fill-rule:nonzero;"/>
        <path d="M2180.6,426.071C2178.41,425.594 2176.18,425.342 2173.9,425.342C2146.47,425.342 2124.22,461.328 2124.22,505.719L2137.62,505.719C2137.62,465.003 2156.33,431.363 2180.6,426.071Z" style="fill:rgb(255,196,138);fill-rule:nonzero;"/>
    </g>
</svg>
