<?xml version="1.0" encoding="UTF-8" standalone="no"?>
<!DOCTYPE svg PUBLIC "-//W3C//DTD SVG 1.1//EN" "http://www.w3.org/Graphics/SVG/1.1/DTD/svg11.dtd">
<svg width="100%" height="100%" viewBox="0 0 441 192" version="1.1" xmlns="http://www.w3.org/2000/svg" xmlns:xlink="http://www.w3.org/1999/xlink" xml:space="preserve" xmlns:serif="http://www.serif.com/" style="fill-rule:evenodd;clip-rule:evenodd;stroke-linejoin:round;stroke-miterlimit:2;">
    <g transform="matrix(1,0,0,1,-252.198,-85.0961)">
        <g transform="matrix(0.27089,0,0,0.27089,75.7309,-182.697)">
            <g transform="matrix(357.09,0,0,357.09,650.882,1467.29)">
                <path d="M1.042,-1.087C1.05,-1.087 1.059,-1.088 1.07,-1.09C1.08,-1.092 1.091,-1.096 1.104,-1.101C1.116,-1.106 1.129,-1.113 1.143,-1.122C1.157,-1.13 1.172,-1.143 1.187,-1.158C1.19,-1.161 1.195,-1.162 1.201,-1.16C1.207,-1.158 1.213,-1.154 1.218,-1.149C1.223,-1.144 1.226,-1.137 1.228,-1.13C1.23,-1.123 1.229,-1.115 1.225,-1.108C1.216,-1.091 1.203,-1.077 1.188,-1.066C1.173,-1.054 1.156,-1.044 1.139,-1.037C1.121,-1.029 1.103,-1.023 1.086,-1.018C1.068,-1.014 1.052,-1.011 1.037,-1.01C1.033,-0.966 1.026,-0.916 1.016,-0.859C1.005,-0.802 0.993,-0.741 0.978,-0.677C0.963,-0.613 0.947,-0.548 0.928,-0.481C0.909,-0.414 0.888,-0.35 0.866,-0.287C0.844,-0.224 0.821,-0.165 0.797,-0.11C0.772,-0.055 0.747,-0.006 0.722,0.035C0.696,0.076 0.67,0.108 0.643,0.131C0.616,0.154 0.59,0.165 0.563,0.163C0.538,0.162 0.518,0.156 0.501,0.145C0.484,0.134 0.47,0.121 0.459,0.105C0.448,0.088 0.439,0.07 0.433,0.05C0.427,0.03 0.423,0.009 0.42,-0.012C0.414,-0.061 0.415,-0.117 0.424,-0.178C0.387,-0.096 0.348,-0.026 0.309,0.032C0.292,0.057 0.275,0.08 0.256,0.102C0.237,0.124 0.217,0.142 0.197,0.156C0.177,0.169 0.157,0.178 0.136,0.181C0.115,0.184 0.095,0.179 0.076,0.166C0.047,0.147 0.027,0.114 0.016,0.065C0.005,0.016 0,-0.043 0.002,-0.111C0.004,-0.179 0.011,-0.254 0.024,-0.335C0.036,-0.416 0.051,-0.498 0.069,-0.581C0.087,-0.663 0.107,-0.743 0.128,-0.821C0.149,-0.898 0.17,-0.968 0.19,-1.029C0.209,-1.09 0.227,-1.141 0.243,-1.18C0.258,-1.219 0.269,-1.24 0.276,-1.245C0.283,-1.254 0.294,-1.26 0.307,-1.264C0.32,-1.268 0.333,-1.27 0.347,-1.269C0.36,-1.268 0.373,-1.266 0.386,-1.261C0.399,-1.256 0.409,-1.248 0.418,-1.239C0.426,-1.23 0.431,-1.218 0.432,-1.205C0.432,-1.192 0.428,-1.176 0.419,-1.159C0.392,-1.106 0.367,-1.049 0.344,-0.986C0.321,-0.923 0.299,-0.858 0.28,-0.792C0.261,-0.725 0.244,-0.657 0.229,-0.589C0.214,-0.521 0.202,-0.455 0.193,-0.392C0.183,-0.329 0.175,-0.27 0.171,-0.215C0.166,-0.16 0.163,-0.113 0.164,-0.072C0.165,-0.031 0.168,0.001 0.174,0.024C0.18,0.047 0.189,0.059 0.202,0.059C0.217,0.059 0.235,0.048 0.254,0.025C0.273,0.002 0.292,-0.028 0.312,-0.064C0.332,-0.1 0.352,-0.14 0.372,-0.185C0.391,-0.23 0.409,-0.274 0.426,-0.318C0.443,-0.361 0.457,-0.402 0.47,-0.44C0.482,-0.477 0.491,-0.508 0.497,-0.531C0.5,-0.544 0.505,-0.556 0.512,-0.566C0.519,-0.575 0.528,-0.582 0.538,-0.586C0.547,-0.59 0.558,-0.591 0.57,-0.588C0.582,-0.585 0.595,-0.579 0.608,-0.568C0.617,-0.561 0.623,-0.554 0.626,-0.547C0.628,-0.54 0.63,-0.533 0.63,-0.526C0.629,-0.519 0.628,-0.513 0.626,-0.506C0.623,-0.499 0.621,-0.492 0.619,-0.485C0.618,-0.481 0.615,-0.47 0.611,-0.453C0.607,-0.436 0.602,-0.414 0.597,-0.389C0.592,-0.363 0.586,-0.334 0.581,-0.303C0.575,-0.271 0.57,-0.239 0.565,-0.207C0.56,-0.174 0.556,-0.143 0.553,-0.113C0.55,-0.082 0.55,-0.055 0.551,-0.032C0.552,-0.009 0.555,0.01 0.56,0.024C0.565,0.037 0.574,0.044 0.585,0.043C0.612,0.041 0.638,0.022 0.664,-0.014C0.689,-0.05 0.714,-0.097 0.739,-0.155C0.763,-0.213 0.786,-0.279 0.809,-0.353C0.831,-0.427 0.852,-0.503 0.871,-0.582C0.889,-0.66 0.907,-0.737 0.922,-0.814C0.937,-0.89 0.949,-0.959 0.96,-1.022C0.946,-1.029 0.933,-1.038 0.921,-1.049C0.908,-1.06 0.898,-1.074 0.889,-1.09C0.88,-1.105 0.873,-1.123 0.869,-1.144C0.864,-1.164 0.863,-1.187 0.864,-1.212C0.866,-1.242 0.871,-1.266 0.879,-1.284C0.887,-1.301 0.896,-1.315 0.907,-1.324C0.918,-1.333 0.928,-1.338 0.939,-1.34C0.95,-1.341 0.959,-1.341 0.967,-1.339C0.98,-1.336 0.991,-1.329 1,-1.319C1.009,-1.308 1.016,-1.295 1.021,-1.281C1.026,-1.266 1.031,-1.249 1.034,-1.232C1.037,-1.215 1.039,-1.197 1.04,-1.18C1.041,-1.163 1.041,-1.146 1.042,-1.132C1.042,-1.117 1.042,-1.104 1.042,-1.094L1.042,-1.087ZM0.908,-1.207C0.907,-1.202 0.907,-1.194 0.91,-1.184C0.912,-1.173 0.916,-1.161 0.921,-1.149C0.926,-1.136 0.933,-1.125 0.942,-1.114C0.95,-1.103 0.96,-1.094 0.971,-1.089L0.982,-1.174C0.983,-1.179 0.982,-1.188 0.981,-1.199C0.98,-1.21 0.977,-1.222 0.974,-1.233C0.971,-1.244 0.966,-1.255 0.96,-1.264C0.954,-1.273 0.946,-1.278 0.937,-1.279C0.93,-1.28 0.925,-1.278 0.922,-1.273C0.919,-1.268 0.916,-1.261 0.915,-1.253C0.913,-1.245 0.912,-1.237 0.911,-1.228C0.91,-1.219 0.909,-1.212 0.908,-1.207Z" style="fill:rgb(38,198,57);fill-rule:nonzero;"/>
            </g>
            <g transform="matrix(357.09,0,0,357.09,1004.76,1467.29)">
                <path d="M0.192,-0.604C0.207,-0.605 0.22,-0.603 0.231,-0.6C0.242,-0.596 0.252,-0.591 0.261,-0.585C0.27,-0.578 0.277,-0.571 0.282,-0.563C0.287,-0.555 0.292,-0.548 0.295,-0.541C0.304,-0.52 0.309,-0.502 0.31,-0.487C0.311,-0.472 0.311,-0.458 0.31,-0.445C0.307,-0.413 0.299,-0.384 0.286,-0.359C0.273,-0.334 0.259,-0.311 0.242,-0.292C0.225,-0.272 0.207,-0.255 0.188,-0.242C0.169,-0.229 0.151,-0.218 0.134,-0.209C0.117,-0.2 0.102,-0.193 0.089,-0.189C0.076,-0.185 0.068,-0.183 0.064,-0.183C0.065,-0.166 0.068,-0.15 0.071,-0.135C0.074,-0.12 0.078,-0.107 0.083,-0.096C0.088,-0.085 0.095,-0.077 0.103,-0.071C0.11,-0.065 0.12,-0.062 0.131,-0.063C0.162,-0.065 0.19,-0.075 0.216,-0.092C0.241,-0.109 0.265,-0.13 0.286,-0.157C0.307,-0.183 0.325,-0.212 0.342,-0.245C0.359,-0.278 0.374,-0.31 0.388,-0.342C0.401,-0.374 0.413,-0.404 0.424,-0.433C0.435,-0.462 0.444,-0.486 0.453,-0.505C0.456,-0.511 0.459,-0.514 0.464,-0.515C0.469,-0.516 0.473,-0.514 0.478,-0.511C0.482,-0.508 0.485,-0.503 0.488,-0.497C0.491,-0.49 0.491,-0.483 0.489,-0.475C0.486,-0.466 0.481,-0.447 0.473,-0.418C0.464,-0.389 0.453,-0.355 0.439,-0.317C0.424,-0.279 0.407,-0.239 0.387,-0.198C0.366,-0.157 0.342,-0.119 0.316,-0.084C0.289,-0.049 0.258,-0.021 0.224,0.001C0.19,0.023 0.153,0.033 0.112,0.032C0.088,0.031 0.067,0.026 0.049,0.017C0.03,0.007 0.015,-0.006 0.002,-0.023C-0.012,-0.039 -0.022,-0.058 -0.031,-0.081C-0.04,-0.104 -0.046,-0.128 -0.05,-0.155C-0.054,-0.18 -0.055,-0.209 -0.054,-0.241C-0.052,-0.273 -0.048,-0.305 -0.041,-0.338C-0.034,-0.371 -0.023,-0.403 -0.011,-0.434C0.003,-0.465 0.019,-0.493 0.038,-0.518C0.057,-0.543 0.079,-0.563 0.105,-0.579C0.13,-0.594 0.159,-0.603 0.192,-0.604ZM0.215,-0.531C0.191,-0.528 0.17,-0.516 0.153,-0.495C0.135,-0.474 0.12,-0.449 0.108,-0.421C0.095,-0.392 0.086,-0.363 0.079,-0.332C0.072,-0.301 0.067,-0.274 0.064,-0.25C0.079,-0.255 0.097,-0.264 0.117,-0.276C0.137,-0.287 0.157,-0.302 0.176,-0.319C0.195,-0.336 0.212,-0.356 0.227,-0.379C0.242,-0.401 0.253,-0.425 0.26,-0.451C0.262,-0.459 0.263,-0.468 0.262,-0.478C0.261,-0.488 0.259,-0.497 0.256,-0.505C0.252,-0.513 0.247,-0.52 0.24,-0.525C0.233,-0.53 0.225,-0.532 0.215,-0.531Z" style="fill:rgb(38,198,57);fill-rule:nonzero;"/>
            </g>
            <g transform="matrix(357.09,0,0,357.09,1141.52,1467.29)">
                <path d="M0.553,-0.982C0.555,-0.983 0.561,-0.987 0.57,-0.993C0.579,-0.998 0.586,-1.002 0.592,-1.003C0.6,-1.004 0.607,-1 0.613,-0.992C0.619,-0.984 0.623,-0.974 0.624,-0.963C0.625,-0.952 0.623,-0.94 0.617,-0.928C0.611,-0.915 0.6,-0.905 0.584,-0.898C0.569,-0.891 0.55,-0.886 0.527,-0.884C0.503,-0.881 0.476,-0.88 0.448,-0.881C0.419,-0.881 0.388,-0.882 0.355,-0.884C0.322,-0.886 0.29,-0.888 0.257,-0.891C0.247,-0.859 0.235,-0.821 0.222,-0.777C0.209,-0.733 0.195,-0.687 0.181,-0.638C0.166,-0.589 0.152,-0.539 0.138,-0.488C0.124,-0.437 0.111,-0.389 0.1,-0.344C0.088,-0.298 0.078,-0.256 0.071,-0.219C0.064,-0.182 0.06,-0.152 0.059,-0.13C0.059,-0.127 0.059,-0.123 0.06,-0.119C0.06,-0.114 0.061,-0.11 0.063,-0.107C0.065,-0.103 0.068,-0.1 0.072,-0.099C0.075,-0.098 0.081,-0.099 0.088,-0.102C0.108,-0.111 0.128,-0.127 0.149,-0.15C0.17,-0.173 0.19,-0.2 0.209,-0.23C0.228,-0.259 0.247,-0.29 0.264,-0.323C0.281,-0.355 0.297,-0.385 0.311,-0.413C0.324,-0.44 0.335,-0.464 0.344,-0.483C0.353,-0.501 0.358,-0.512 0.361,-0.515C0.37,-0.524 0.38,-0.525 0.391,-0.518C0.402,-0.51 0.408,-0.5 0.411,-0.487C0.412,-0.482 0.409,-0.472 0.402,-0.457C0.395,-0.442 0.387,-0.424 0.376,-0.403C0.365,-0.382 0.354,-0.359 0.341,-0.336C0.328,-0.313 0.315,-0.291 0.304,-0.271C0.293,-0.25 0.283,-0.233 0.275,-0.218C0.266,-0.203 0.261,-0.194 0.26,-0.191C0.259,-0.188 0.255,-0.18 0.248,-0.167C0.241,-0.154 0.232,-0.14 0.221,-0.123C0.21,-0.106 0.197,-0.089 0.183,-0.072C0.168,-0.054 0.153,-0.038 0.137,-0.025C0.121,-0.012 0.105,-0.002 0.088,0.004C0.071,0.01 0.054,0.009 0.037,0.002C0.011,-0.009 -0.009,-0.027 -0.023,-0.052C-0.036,-0.077 -0.045,-0.108 -0.05,-0.143C-0.054,-0.178 -0.054,-0.218 -0.051,-0.261C-0.047,-0.304 -0.041,-0.348 -0.032,-0.395C-0.023,-0.441 -0.012,-0.488 0.002,-0.536C0.015,-0.583 0.028,-0.629 0.042,-0.674C0.056,-0.718 0.07,-0.76 0.084,-0.799C0.097,-0.838 0.11,-0.872 0.121,-0.901C0.084,-0.903 0.052,-0.903 0.026,-0.902C-0.001,-0.9 -0.019,-0.895 -0.028,-0.887C-0.03,-0.883 -0.032,-0.88 -0.035,-0.877C-0.038,-0.874 -0.041,-0.872 -0.044,-0.87C-0.047,-0.868 -0.051,-0.867 -0.056,-0.868C-0.061,-0.869 -0.067,-0.872 -0.074,-0.879C-0.08,-0.885 -0.084,-0.893 -0.085,-0.902C-0.087,-0.914 -0.085,-0.924 -0.08,-0.931C-0.075,-0.938 -0.07,-0.942 -0.067,-0.944C-0.048,-0.955 -0.019,-0.963 0.02,-0.966C0.058,-0.969 0.1,-0.971 0.147,-0.97L0.157,-0.997C0.16,-1.006 0.164,-1.015 0.17,-1.024C0.175,-1.033 0.181,-1.042 0.188,-1.049C0.195,-1.056 0.202,-1.061 0.209,-1.065C0.216,-1.069 0.223,-1.07 0.229,-1.069C0.232,-1.068 0.237,-1.067 0.244,-1.066C0.251,-1.065 0.257,-1.061 0.264,-1.056C0.271,-1.051 0.276,-1.043 0.281,-1.032C0.286,-1.021 0.287,-1.005 0.285,-0.985C0.285,-0.982 0.283,-0.976 0.28,-0.967C0.31,-0.966 0.339,-0.965 0.368,-0.965C0.397,-0.964 0.423,-0.964 0.447,-0.965C0.471,-0.966 0.492,-0.967 0.511,-0.97C0.529,-0.973 0.543,-0.977 0.553,-0.982Z" style="fill:rgb(38,198,57);fill-rule:nonzero;"/>
            </g>
        </g>
        <g transform="matrix(0.286116,0,0,0.286116,245.43,-534.546)">
            <g transform="matrix(274.532,0,0,274.532,673.279,2594.56)">
                <path d="M0.486,-0.682L0.604,-0.682L0.352,-0.361L0.352,0L0.252,0L0.252,-0.361L0,-0.682L0.118,-0.682L0.301,-0.447L0.486,-0.682Z" style="fill-rule:nonzero;"/>
            </g>
            <g transform="matrix(274.532,0,0,274.532,817.113,2594.56)">
                <path d="M0.41,-0.692C0.516,-0.692 0.603,-0.659 0.674,-0.592C0.744,-0.525 0.779,-0.441 0.779,-0.341C0.779,-0.24 0.743,-0.157 0.673,-0.091C0.602,-0.025 0.513,0.008 0.405,0.008C0.302,0.008 0.216,-0.025 0.148,-0.091C0.079,-0.157 0.045,-0.24 0.045,-0.339C0.045,-0.441 0.079,-0.525 0.148,-0.592C0.217,-0.659 0.305,-0.692 0.41,-0.692ZM0.414,-0.599C0.336,-0.599 0.272,-0.575 0.221,-0.526C0.171,-0.477 0.146,-0.415 0.146,-0.339C0.146,-0.265 0.171,-0.204 0.222,-0.155C0.272,-0.106 0.335,-0.082 0.411,-0.082C0.487,-0.082 0.551,-0.107 0.602,-0.157C0.653,-0.207 0.678,-0.269 0.678,-0.343C0.678,-0.415 0.653,-0.476 0.602,-0.525C0.551,-0.574 0.488,-0.599 0.414,-0.599Z" style="fill-rule:nonzero;"/>
            </g>
            <g transform="matrix(274.532,0,0,274.532,1043.12,2594.56)">
                <path d="M0.55,-0.682L0.648,-0.682L0.648,-0.295C0.648,-0.243 0.644,-0.203 0.636,-0.176C0.629,-0.15 0.619,-0.127 0.608,-0.11C0.597,-0.092 0.583,-0.076 0.567,-0.062C0.513,-0.015 0.442,0.008 0.355,0.008C0.266,0.008 0.195,-0.015 0.141,-0.062C0.125,-0.076 0.111,-0.092 0.1,-0.11C0.089,-0.127 0.079,-0.149 0.072,-0.175C0.065,-0.201 0.061,-0.241 0.061,-0.296L0.061,-0.682L0.159,-0.682L0.159,-0.295C0.159,-0.231 0.167,-0.186 0.181,-0.161C0.196,-0.136 0.218,-0.116 0.248,-0.101C0.278,-0.086 0.313,-0.078 0.354,-0.078C0.412,-0.078 0.459,-0.093 0.496,-0.124C0.515,-0.14 0.529,-0.159 0.537,-0.181C0.546,-0.203 0.55,-0.241 0.55,-0.295L0.55,-0.682Z" style="fill-rule:nonzero;"/>
            </g>
            <g transform="matrix(274.532,0,0,274.532,1237.49,2594.56)">
                <path d="M0.078,0L0.078,-0.682L0.249,-0.682C0.318,-0.682 0.373,-0.665 0.413,-0.631C0.454,-0.597 0.474,-0.55 0.474,-0.492C0.474,-0.452 0.464,-0.418 0.444,-0.389C0.424,-0.36 0.396,-0.339 0.359,-0.324C0.381,-0.31 0.402,-0.29 0.423,-0.266C0.444,-0.241 0.473,-0.198 0.511,-0.136C0.535,-0.097 0.554,-0.068 0.568,-0.049L0.604,0L0.488,0L0.458,-0.045L0.433,-0.08L0.403,-0.13L0.37,-0.183C0.35,-0.211 0.331,-0.233 0.315,-0.25C0.298,-0.267 0.283,-0.279 0.269,-0.286C0.256,-0.293 0.233,-0.297 0.201,-0.297L0.176,-0.297L0.176,0L0.078,0ZM0.205,-0.599L0.176,-0.599L0.176,-0.384L0.213,-0.384C0.262,-0.384 0.296,-0.388 0.315,-0.396C0.333,-0.405 0.347,-0.418 0.358,-0.435C0.368,-0.452 0.373,-0.471 0.373,-0.493C0.373,-0.515 0.367,-0.534 0.356,-0.552C0.345,-0.569 0.329,-0.581 0.308,-0.588C0.287,-0.596 0.253,-0.599 0.205,-0.599Z" style="fill-rule:nonzero;"/>
            </g>
        </g>
        <g transform="matrix(0.192445,0,0,0.192445,275.08,-223.445)">
            <g transform="matrix(419.399,0,0,419.399,675.376,2594.56)">
                <path d="M0.326,-0.7C0.393,-0.7 0.45,-0.677 0.496,-0.632C0.542,-0.587 0.565,-0.531 0.565,-0.465C0.565,-0.399 0.542,-0.343 0.496,-0.298C0.45,-0.253 0.393,-0.23 0.326,-0.23L0.203,-0.23L0.203,0L0.065,0L0.065,-0.7L0.326,-0.7ZM0.326,-0.359C0.355,-0.359 0.38,-0.369 0.399,-0.39C0.418,-0.41 0.428,-0.435 0.428,-0.465C0.428,-0.496 0.418,-0.521 0.399,-0.541C0.38,-0.561 0.355,-0.571 0.326,-0.571L0.203,-0.571L0.203,-0.359L0.326,-0.359Z" style="fill-rule:nonzero;"/>
            </g>
            <g transform="matrix(419.399,0,0,419.399,927.015,2594.56)">
                <path d="M0.203,-0.132L0.47,-0.132L0.47,0L0.065,0L0.065,-0.7L0.203,-0.7L0.203,-0.132Z" style="fill-rule:nonzero;"/>
            </g>
            <g transform="matrix(419.399,0,0,419.399,1142.17,2594.56)">
                <path d="M0.515,0L0.473,-0.126L0.194,-0.126L0.152,0L0.003,0L0.248,-0.7L0.419,-0.7L0.665,0L0.515,0ZM0.238,-0.255L0.43,-0.255L0.334,-0.541L0.238,-0.255Z" style="fill-rule:nonzero;"/>
            </g>
            <g transform="matrix(419.399,0,0,419.399,1426.52,2594.56)">
                <path d="M0.47,-0.7L0.608,-0.7L0.608,0L0.503,0L0.203,-0.428L0.203,0L0.065,0L0.065,-0.7L0.17,-0.7L0.47,-0.273L0.47,-0.7Z" style="fill-rule:nonzero;"/>
            </g>
            <g transform="matrix(419.399,0,0,419.399,1712.97,2594.56)">
                <path d="M0.528,-0.7L0.528,-0.568L0.339,-0.568L0.339,0L0.201,0L0.201,-0.568L0.013,-0.568L0.013,-0.7L0.528,-0.7Z" style="fill-rule:nonzero;"/>
            </g>
            <g transform="matrix(419.399,0,0,419.399,1935.25,2594.56)">
                <path d="M0.304,0.014C0.235,0.014 0.176,-0.002 0.129,-0.033C0.082,-0.064 0.048,-0.106 0.029,-0.159L0.147,-0.228C0.174,-0.157 0.228,-0.121 0.308,-0.121C0.347,-0.121 0.375,-0.128 0.393,-0.142C0.411,-0.156 0.42,-0.174 0.42,-0.195C0.42,-0.22 0.409,-0.239 0.387,-0.253C0.365,-0.266 0.326,-0.281 0.269,-0.297C0.238,-0.306 0.211,-0.316 0.19,-0.325C0.168,-0.334 0.146,-0.347 0.125,-0.363C0.103,-0.378 0.086,-0.398 0.075,-0.422C0.064,-0.446 0.058,-0.474 0.058,-0.506C0.058,-0.569 0.081,-0.62 0.126,-0.658C0.171,-0.695 0.225,-0.714 0.288,-0.714C0.345,-0.714 0.395,-0.7 0.438,-0.673C0.481,-0.645 0.514,-0.606 0.538,-0.557L0.422,-0.49C0.394,-0.55 0.349,-0.58 0.288,-0.58C0.259,-0.58 0.237,-0.574 0.221,-0.561C0.204,-0.548 0.196,-0.531 0.196,-0.51C0.196,-0.488 0.205,-0.47 0.224,-0.457C0.242,-0.443 0.277,-0.428 0.329,-0.412C0.35,-0.405 0.367,-0.4 0.378,-0.397C0.389,-0.393 0.404,-0.387 0.423,-0.38C0.442,-0.372 0.456,-0.365 0.467,-0.358C0.477,-0.351 0.489,-0.342 0.502,-0.331C0.515,-0.32 0.526,-0.308 0.533,-0.296C0.54,-0.284 0.546,-0.27 0.551,-0.253C0.556,-0.236 0.558,-0.217 0.558,-0.197C0.558,-0.132 0.535,-0.081 0.488,-0.043C0.44,-0.005 0.379,0.014 0.304,0.014Z" style="fill-rule:nonzero;"/>
            </g>
        </g>
    </g>
</svg>
