<?xml version="1.0" encoding="UTF-8" standalone="no"?>
<!DOCTYPE svg PUBLIC "-//W3C//DTD SVG 1.1//EN" "http://www.w3.org/Graphics/SVG/1.1/DTD/svg11.dtd">
<svg width="100%" height="100%" viewBox="0 0 949 246" version="1.1" xmlns="http://www.w3.org/2000/svg" xmlns:xlink="http://www.w3.org/1999/xlink" xml:space="preserve" xmlns:serif="http://www.serif.com/" style="fill-rule:evenodd;clip-rule:evenodd;stroke-linecap:round;stroke-linejoin:round;stroke-miterlimit:1.5;">
    <g transform="matrix(1,0,0,1,-774.268,-642.678)">
        <g transform="matrix(0.560931,0,0,0.560931,214.239,-143.875)">
            <g transform="matrix(228.303,0,0,228.303,1478.63,1616.36)">
                <path d="M0.096,-0.708L0.168,-0.708L0.168,-0.401L0.554,-0.401L0.554,-0.708L0.626,-0.708L0.626,0L0.554,0L0.554,-0.335L0.168,-0.335L0.168,0L0.096,0L0.096,-0.708Z" style="fill-rule:nonzero;"/>
            </g>
            <g transform="matrix(228.303,0,0,228.303,1643.46,1616.36)">
                <path d="M0.708,-0.354C0.708,-0.395 0.701,-0.434 0.688,-0.471C0.675,-0.507 0.656,-0.54 0.631,-0.568C0.606,-0.596 0.575,-0.618 0.539,-0.635C0.503,-0.652 0.462,-0.66 0.417,-0.66C0.372,-0.66 0.331,-0.652 0.295,-0.635C0.259,-0.618 0.229,-0.596 0.204,-0.568C0.179,-0.54 0.159,-0.507 0.146,-0.471C0.133,-0.434 0.126,-0.395 0.126,-0.354C0.126,-0.313 0.133,-0.275 0.146,-0.238C0.159,-0.201 0.179,-0.168 0.204,-0.14C0.229,-0.112 0.259,-0.09 0.295,-0.073C0.331,-0.056 0.372,-0.048 0.417,-0.048C0.462,-0.048 0.503,-0.056 0.539,-0.073C0.575,-0.09 0.606,-0.112 0.631,-0.14C0.656,-0.168 0.675,-0.201 0.688,-0.238C0.701,-0.275 0.708,-0.313 0.708,-0.354ZM0.786,-0.354C0.786,-0.3 0.777,-0.25 0.758,-0.205C0.739,-0.16 0.713,-0.121 0.681,-0.088C0.648,-0.055 0.608,-0.029 0.564,-0.01C0.519,0.009 0.47,0.018 0.417,0.018C0.364,0.018 0.316,0.009 0.271,-0.01C0.226,-0.029 0.187,-0.055 0.154,-0.088C0.121,-0.121 0.095,-0.16 0.076,-0.205C0.057,-0.25 0.048,-0.3 0.048,-0.354C0.048,-0.408 0.057,-0.458 0.076,-0.503C0.095,-0.548 0.121,-0.588 0.154,-0.621C0.187,-0.654 0.226,-0.679 0.271,-0.698C0.316,-0.717 0.364,-0.726 0.417,-0.726C0.47,-0.726 0.519,-0.717 0.564,-0.698C0.608,-0.679 0.648,-0.654 0.681,-0.621C0.713,-0.588 0.739,-0.548 0.758,-0.503C0.777,-0.458 0.786,-0.408 0.786,-0.354Z" style="fill-rule:nonzero;"/>
            </g>
            <g transform="matrix(228.303,0,0,228.303,1833.87,1616.36)">
                <path d="M0.602,-0.264C0.602,-0.235 0.599,-0.204 0.592,-0.171C0.584,-0.137 0.571,-0.107 0.552,-0.079C0.533,-0.051 0.506,-0.028 0.473,-0.01C0.439,0.009 0.396,0.018 0.343,0.018C0.29,0.018 0.246,0.009 0.213,-0.01C0.18,-0.028 0.153,-0.051 0.134,-0.079C0.115,-0.107 0.101,-0.137 0.095,-0.171C0.088,-0.204 0.084,-0.235 0.084,-0.264L0.084,-0.708L0.156,-0.708L0.156,-0.272C0.156,-0.238 0.159,-0.209 0.166,-0.185C0.173,-0.16 0.182,-0.14 0.193,-0.123C0.204,-0.106 0.216,-0.093 0.23,-0.084C0.243,-0.074 0.257,-0.066 0.271,-0.061C0.284,-0.056 0.297,-0.052 0.31,-0.051C0.323,-0.049 0.334,-0.048 0.343,-0.048C0.352,-0.048 0.363,-0.049 0.376,-0.051C0.389,-0.052 0.402,-0.056 0.416,-0.061C0.429,-0.066 0.443,-0.074 0.457,-0.084C0.47,-0.093 0.483,-0.106 0.494,-0.123C0.505,-0.14 0.513,-0.16 0.52,-0.185C0.527,-0.209 0.53,-0.238 0.53,-0.272L0.53,-0.708L0.602,-0.708L0.602,-0.264Z" style="fill-rule:nonzero;"/>
            </g>
            <g transform="matrix(228.303,0,0,228.303,1990.48,1616.36)">
                <path d="M0.431,-0.591C0.4,-0.637 0.354,-0.66 0.294,-0.66C0.275,-0.66 0.257,-0.658 0.239,-0.653C0.221,-0.648 0.205,-0.64 0.191,-0.63C0.176,-0.619 0.165,-0.606 0.156,-0.59C0.147,-0.573 0.143,-0.554 0.143,-0.532C0.143,-0.5 0.152,-0.475 0.17,-0.458C0.188,-0.44 0.21,-0.425 0.237,-0.414C0.264,-0.403 0.293,-0.393 0.325,-0.384C0.356,-0.375 0.385,-0.363 0.412,-0.348C0.439,-0.333 0.461,-0.313 0.479,-0.288C0.497,-0.263 0.506,-0.23 0.506,-0.187C0.506,-0.155 0.499,-0.126 0.486,-0.101C0.472,-0.075 0.454,-0.053 0.432,-0.036C0.409,-0.019 0.384,-0.005 0.357,0.004C0.329,0.013 0.301,0.018 0.273,0.018C0.23,0.018 0.189,0.01 0.15,-0.007C0.111,-0.023 0.077,-0.05 0.05,-0.087L0.115,-0.134C0.13,-0.108 0.152,-0.087 0.179,-0.072C0.206,-0.056 0.239,-0.048 0.276,-0.048C0.294,-0.048 0.312,-0.051 0.33,-0.057C0.348,-0.062 0.364,-0.071 0.379,-0.082C0.393,-0.093 0.405,-0.106 0.414,-0.122C0.423,-0.138 0.428,-0.156 0.428,-0.177C0.428,-0.202 0.423,-0.222 0.413,-0.239C0.402,-0.255 0.389,-0.269 0.372,-0.28C0.355,-0.291 0.335,-0.3 0.314,-0.307C0.292,-0.314 0.27,-0.322 0.247,-0.329C0.224,-0.336 0.201,-0.345 0.18,-0.354C0.158,-0.363 0.138,-0.375 0.122,-0.39C0.105,-0.404 0.091,-0.422 0.081,-0.444C0.07,-0.465 0.065,-0.492 0.065,-0.525C0.065,-0.559 0.072,-0.589 0.085,-0.614C0.098,-0.639 0.115,-0.66 0.137,-0.677C0.158,-0.694 0.183,-0.706 0.21,-0.714C0.237,-0.722 0.265,-0.726 0.294,-0.726C0.334,-0.726 0.37,-0.72 0.403,-0.707C0.436,-0.694 0.466,-0.672 0.494,-0.64L0.431,-0.591Z" style="fill-rule:nonzero;"/>
            </g>
            <g transform="matrix(228.303,0,0,228.303,2117.42,1616.36)">
                <path d="M0.168,-0.066L0.547,-0.066L0.547,0L0.096,0L0.096,-0.708L0.535,-0.708L0.535,-0.642L0.168,-0.642L0.168,-0.401L0.511,-0.401L0.511,-0.335L0.168,-0.335L0.168,-0.066Z" style="fill-rule:nonzero;"/>
            </g>
        </g>
        <g transform="matrix(0.560931,0,0,0.560931,216.028,-21.1619)">
            <g transform="matrix(228.303,0,0,228.303,1478.63,1616.36)">
                <path d="M0.708,-0.354C0.708,-0.395 0.701,-0.434 0.688,-0.471C0.675,-0.507 0.656,-0.54 0.631,-0.568C0.606,-0.596 0.575,-0.618 0.539,-0.635C0.503,-0.652 0.462,-0.66 0.417,-0.66C0.372,-0.66 0.331,-0.652 0.295,-0.635C0.259,-0.618 0.229,-0.596 0.204,-0.568C0.179,-0.54 0.159,-0.507 0.146,-0.471C0.133,-0.434 0.126,-0.395 0.126,-0.354C0.126,-0.313 0.133,-0.275 0.146,-0.238C0.159,-0.201 0.179,-0.168 0.204,-0.14C0.229,-0.112 0.259,-0.09 0.295,-0.073C0.331,-0.056 0.372,-0.048 0.417,-0.048C0.462,-0.048 0.503,-0.056 0.539,-0.073C0.575,-0.09 0.606,-0.112 0.631,-0.14C0.656,-0.168 0.675,-0.201 0.688,-0.238C0.701,-0.275 0.708,-0.313 0.708,-0.354ZM0.786,-0.354C0.786,-0.3 0.777,-0.25 0.758,-0.205C0.739,-0.16 0.713,-0.121 0.681,-0.088C0.648,-0.055 0.608,-0.029 0.564,-0.01C0.519,0.009 0.47,0.018 0.417,0.018C0.364,0.018 0.316,0.009 0.271,-0.01C0.226,-0.029 0.187,-0.055 0.154,-0.088C0.121,-0.121 0.095,-0.16 0.076,-0.205C0.057,-0.25 0.048,-0.3 0.048,-0.354C0.048,-0.408 0.057,-0.458 0.076,-0.503C0.095,-0.548 0.121,-0.588 0.154,-0.621C0.187,-0.654 0.226,-0.679 0.271,-0.698C0.316,-0.717 0.364,-0.726 0.417,-0.726C0.47,-0.726 0.519,-0.717 0.564,-0.698C0.608,-0.679 0.648,-0.654 0.681,-0.621C0.713,-0.588 0.739,-0.548 0.758,-0.503C0.777,-0.458 0.786,-0.408 0.786,-0.354Z" style="fill-rule:nonzero;"/>
            </g>
            <g transform="matrix(228.303,0,0,228.303,1669.03,1616.36)">
                <path d="M0.168,0L0.096,0L0.096,-0.708L0.523,-0.708L0.523,-0.642L0.168,-0.642L0.168,-0.401L0.498,-0.401L0.498,-0.335L0.168,-0.335L0.168,0Z" style="fill-rule:nonzero;"/>
            </g>
            <g transform="matrix(228.303,0,0,228.303,1859.44,1616.36)">
                <path d="M0.168,-0.395L0.284,-0.395C0.316,-0.395 0.343,-0.398 0.366,-0.405C0.388,-0.412 0.406,-0.421 0.419,-0.432C0.432,-0.443 0.442,-0.456 0.448,-0.471C0.454,-0.486 0.457,-0.502 0.457,-0.519C0.457,-0.536 0.454,-0.552 0.448,-0.567C0.442,-0.582 0.432,-0.595 0.419,-0.606C0.406,-0.617 0.388,-0.626 0.366,-0.633C0.343,-0.639 0.316,-0.642 0.284,-0.642L0.168,-0.642L0.168,-0.395ZM0.096,-0.708L0.302,-0.708C0.374,-0.708 0.431,-0.692 0.473,-0.661C0.514,-0.63 0.535,-0.582 0.535,-0.519C0.535,-0.456 0.514,-0.408 0.473,-0.377C0.431,-0.345 0.374,-0.329 0.302,-0.329L0.168,-0.329L0.168,0L0.096,0L0.096,-0.708Z" style="fill-rule:nonzero;"/>
            </g>
            <g transform="matrix(228.303,0,0,228.303,1990.48,1616.36)">
                <path d="M0.168,-0.066L0.498,-0.066L0.498,0L0.096,0L0.096,-0.708L0.168,-0.708L0.168,-0.066Z" style="fill-rule:nonzero;"/>
            </g>
            <g transform="matrix(228.303,0,0,228.303,2104.63,1616.36)">
                <path d="M0.189,-0.252L0.496,-0.252L0.343,-0.624L0.189,-0.252ZM0.084,0L0,0L0.308,-0.708L0.378,-0.708L0.686,0L0.602,0L0.524,-0.186L0.162,-0.186L0.084,0Z" style="fill-rule:nonzero;"/>
            </g>
            <g transform="matrix(228.303,0,0,228.303,2261.25,1616.36)">
                <path d="M0.608,-0.108L0.61,-0.108L0.61,-0.708L0.682,-0.708L0.682,0L0.592,0L0.17,-0.606L0.168,-0.606L0.168,0L0.096,0L0.096,-0.708L0.186,-0.708L0.608,-0.108Z" style="fill-rule:nonzero;"/>
            </g>
            <g transform="matrix(228.303,0,0,228.303,2438.87,1616.36)">
                <path d="M0.323,0L0.251,0L0.251,-0.642L0.014,-0.642L0.014,-0.708L0.56,-0.708L0.56,-0.642L0.323,-0.642L0.323,0Z" style="fill-rule:nonzero;"/>
            </g>
            <g transform="matrix(228.303,0,0,228.303,2569.92,1616.36)">
                <path d="M0.431,-0.591C0.4,-0.637 0.354,-0.66 0.294,-0.66C0.275,-0.66 0.257,-0.658 0.239,-0.653C0.221,-0.648 0.205,-0.64 0.191,-0.63C0.176,-0.619 0.165,-0.606 0.156,-0.59C0.147,-0.573 0.143,-0.554 0.143,-0.532C0.143,-0.5 0.152,-0.475 0.17,-0.458C0.188,-0.44 0.21,-0.425 0.237,-0.414C0.264,-0.403 0.293,-0.393 0.325,-0.384C0.356,-0.375 0.385,-0.363 0.412,-0.348C0.439,-0.333 0.461,-0.313 0.479,-0.288C0.497,-0.263 0.506,-0.23 0.506,-0.187C0.506,-0.155 0.499,-0.126 0.486,-0.101C0.472,-0.075 0.454,-0.053 0.432,-0.036C0.409,-0.019 0.384,-0.005 0.357,0.004C0.329,0.013 0.301,0.018 0.273,0.018C0.23,0.018 0.189,0.01 0.15,-0.007C0.111,-0.023 0.077,-0.05 0.05,-0.087L0.115,-0.134C0.13,-0.108 0.152,-0.087 0.179,-0.072C0.206,-0.056 0.239,-0.048 0.276,-0.048C0.294,-0.048 0.312,-0.051 0.33,-0.057C0.348,-0.062 0.364,-0.071 0.379,-0.082C0.393,-0.093 0.405,-0.106 0.414,-0.122C0.423,-0.138 0.428,-0.156 0.428,-0.177C0.428,-0.202 0.423,-0.222 0.413,-0.239C0.402,-0.255 0.389,-0.269 0.372,-0.28C0.355,-0.291 0.335,-0.3 0.314,-0.307C0.292,-0.314 0.27,-0.322 0.247,-0.329C0.224,-0.336 0.201,-0.345 0.18,-0.354C0.158,-0.363 0.138,-0.375 0.122,-0.39C0.105,-0.404 0.091,-0.422 0.081,-0.444C0.07,-0.465 0.065,-0.492 0.065,-0.525C0.065,-0.559 0.072,-0.589 0.085,-0.614C0.098,-0.639 0.115,-0.66 0.137,-0.677C0.158,-0.694 0.183,-0.706 0.21,-0.714C0.237,-0.722 0.265,-0.726 0.294,-0.726C0.334,-0.726 0.37,-0.72 0.403,-0.707C0.436,-0.694 0.466,-0.672 0.494,-0.64L0.431,-0.591Z" style="fill-rule:nonzero;"/>
            </g>
        </g>
        <g transform="matrix(0.954928,0,0,0.851703,526.566,534.469)">
            <path d="M399.274,297.345C403.042,286.635 407.541,269.629 432.685,250.505C468.85,222.998 503.907,222.114 503.907,222.114C503.907,222.114 507.731,286.78 476.093,314.418C444.455,342.057 396.085,353.613 396.085,353.613C396.085,353.613 392.241,317.333 399.274,297.345Z" style="fill:rgb(86,139,112);"/>
        </g>
        <g transform="matrix(1,0,0,1,25.885,-130.822)">
            <path d="M868.751,917.707C868.751,917.707 876.17,884.333 911.63,863.89C947.09,843.446 984.291,839.796 984.291,839.796C984.291,839.796 988.116,904.462 956.478,932.1C924.84,959.739 867.362,971.525 867.362,971.525" style="fill:none;stroke:black;stroke-width:6.25px;"/>
        </g>
        <g transform="matrix(-1,0,0,1,1761.83,-130.822)">
            <path d="M868.751,917.707C868.751,917.707 876.17,884.333 911.63,863.89C947.09,843.446 984.291,839.796 984.291,839.796C984.291,839.796 988.116,904.462 956.478,932.1C924.84,959.739 867.362,971.525 867.362,971.525" style="fill:none;stroke:black;stroke-width:6.25px;"/>
        </g>
        <g transform="matrix(0.099768,0,0,1,806.703,-305.832)">
            <rect x="873.968" y="1092.83" width="2.317" height="95.43" style="fill:rgb(235,235,235);"/>
        </g>
        <g transform="matrix(0.099768,0,0,1,806.703,-305.832)">
            <path d="M876.285,1089.7C893.584,1089.7 907.608,1091.1 907.608,1092.83L907.608,1188.26C907.608,1189.98 893.584,1191.38 876.285,1191.38L873.968,1191.38C856.669,1191.38 842.646,1189.98 842.646,1188.26L842.646,1092.83C842.646,1091.1 856.669,1089.7 873.968,1089.7L876.285,1089.7Z"/>
        </g>
        <g transform="matrix(1.07038,0,0,0.944297,213.029,44.0495)">
            <path d="M595.145,727.154C595.145,727.154 603.217,663.534 636.707,637.25C670.197,663.534 678.123,727.154 678.123,727.154" style="fill:none;stroke:black;stroke-width:6.19px;"/>
        </g>
        <g transform="matrix(0.88262,0.605555,-0.534225,0.778653,751.619,-221.374)">
            <path d="M606.791,682.344C613.175,665.703 622.726,648.223 636.707,637.25C651.224,648.644 660.937,667.052 667.284,684.254" style="fill:none;stroke:black;stroke-width:6.19px;"/>
        </g>
        <g transform="matrix(-0.88262,0.605555,0.534225,0.778653,1035.71,-221.374)">
            <path d="M606.791,682.344C613.175,665.703 622.726,648.223 636.707,637.25C651.224,648.644 660.937,667.052 667.284,684.254" style="fill:none;stroke:black;stroke-width:6.19px;"/>
        </g>
        <g transform="matrix(1,0,0,0.142207,304.313,739.571)">
            <rect x="564.178" y="1016.51" width="51.53" height="2.362" style="fill:rgb(235,235,235);"/>
        </g>
        <g transform="matrix(1,0,0,0.142207,304.313,739.571)">
            <path d="M615.708,994.537C617.434,994.537 618.833,1004.38 618.833,1016.51L618.833,1018.87C618.833,1031.01 617.434,1040.85 615.708,1040.85L564.178,1040.85C562.452,1040.85 561.053,1031.01 561.053,1018.87L561.053,1016.51C561.053,1004.38 562.452,994.537 564.178,994.537L615.708,994.537Z"/>
        </g>
    </g>
</svg>
